M48
; DRILL file {KiCad (5.1.2)-1} date 27.05.2019 08:40:34
; FORMAT={3:3/ absolute / metric / suppress leading zeros}
; #@! TF.CreationDate,2019-05-27T08:40:34+02:00
; #@! TF.GenerationSoftware,Kicad,Pcbnew,(5.1.2)-1
FMAT,2
METRIC,TZ
T1C0.400
T2C0.750
T3C0.800
T4C0.900
T5C1.000
T6C1.200
T7C1.300
T8C1.520
%
G90
G05
T1
X27686Y-172085
X27813Y-172974
X27940Y-180594
X27991Y-182829
X28067Y-179324
X28321Y-173609
X28983Y-175369
X29769Y-176869
X31877Y-164846
X31928Y-170485
X32258Y-167386
X32258Y-168275
X32258Y-169164
X32766Y-159766
X33147Y-164846
X33274Y-161163
X33401Y-159131
X34163Y-164846
X34925Y-161163
X36043Y-164719
X36703Y-172466
X36754Y-181127
X36764Y-176144
X37838Y-177200
X37846Y-155702
X39497Y-155702
X40742Y-163805
X41910Y-168148
X41910Y-169037
X41910Y-169926
X42164Y-181712
X42545Y-156337
X42926Y-157226
X43815Y-177038
X44298Y-159029
X44704Y-177038
X44831Y-165100
X45702Y-172585
X47117Y-154432
X57500Y-175575
X57658Y-185928
X57658Y-186944
X57658Y-187960
X61976Y-181102
X61976Y-182118
X61976Y-182880
X68834Y-181864
X68834Y-182626
X68834Y-183388
X72975Y-175300
X73152Y-186436
X73152Y-187452
X73152Y-188468
X77470Y-181356
X77470Y-182372
X77470Y-183388
T2
X71225Y-183050
X73225Y-183050
X75225Y-183050
X40577Y-151765
X42577Y-151765
X44577Y-151765
X31496Y-151765
X33497Y-151765
X35497Y-151765
X55750Y-182825
X57750Y-182825
X59750Y-182825
T3
X26629Y-175544
X26629Y-179344
T4
X25400Y-151130
X25400Y-153670
X25400Y-156210
T5
X25400Y-166370
X25400Y-168910
T6
X53940Y-163505
X53940Y-179145
X60290Y-179145
X61560Y-163505
X69415Y-163730
X69415Y-179370
X75765Y-179370
X77035Y-163730
T7
X24795Y-188229
X27495Y-189429
X29995Y-196229
X34095Y-185029
X34585Y-192629
X38435Y-188229
X41135Y-189429
X43635Y-196229
X47735Y-185029
X48225Y-192629
T8
X55250Y-157575
X60330Y-157575
X70725Y-158050
X75805Y-158050
T0
M30
