G04 #@! TF.GenerationSoftware,KiCad,Pcbnew,(5.1.2)-1*
G04 #@! TF.CreationDate,2019-05-27T08:40:29+02:00*
G04 #@! TF.ProjectId,fireSound,66697265-536f-4756-9e64-2e6b69636164,rev?*
G04 #@! TF.SameCoordinates,Original*
G04 #@! TF.FileFunction,Soldermask,Bot*
G04 #@! TF.FilePolarity,Negative*
%FSLAX46Y46*%
G04 Gerber Fmt 4.6, Leading zero omitted, Abs format (unit mm)*
G04 Created by KiCad (PCBNEW (5.1.2)-1) date 2019-05-27 08:40:29*
%MOMM*%
%LPD*%
G04 APERTURE LIST*
%ADD10C,0.100000*%
G04 APERTURE END LIST*
D10*
G36*
X44760235Y-195094454D02*
G01*
X44977200Y-195160270D01*
X45177155Y-195267148D01*
X45352418Y-195410982D01*
X45496252Y-195586245D01*
X45603130Y-195786200D01*
X45668946Y-196003165D01*
X45691169Y-196228800D01*
X45668946Y-196454435D01*
X45603130Y-196671400D01*
X45496252Y-196871355D01*
X45352418Y-197046618D01*
X45177155Y-197190452D01*
X44977200Y-197297330D01*
X44760235Y-197363146D01*
X44591143Y-197379800D01*
X42678057Y-197379800D01*
X42508965Y-197363146D01*
X42292000Y-197297330D01*
X42092045Y-197190452D01*
X41916782Y-197046618D01*
X41772948Y-196871355D01*
X41666070Y-196671400D01*
X41600254Y-196454435D01*
X41578031Y-196228800D01*
X41600254Y-196003165D01*
X41666070Y-195786200D01*
X41772948Y-195586245D01*
X41916782Y-195410982D01*
X42092045Y-195267148D01*
X42292000Y-195160270D01*
X42508965Y-195094454D01*
X42678057Y-195077800D01*
X44591143Y-195077800D01*
X44760235Y-195094454D01*
X44760235Y-195094454D01*
G37*
G36*
X31120435Y-195094454D02*
G01*
X31337400Y-195160270D01*
X31537355Y-195267148D01*
X31712618Y-195410982D01*
X31856452Y-195586245D01*
X31963330Y-195786200D01*
X32029146Y-196003165D01*
X32051369Y-196228800D01*
X32029146Y-196454435D01*
X31963330Y-196671400D01*
X31856452Y-196871355D01*
X31712618Y-197046618D01*
X31537355Y-197190452D01*
X31337400Y-197297330D01*
X31120435Y-197363146D01*
X30951343Y-197379800D01*
X29038257Y-197379800D01*
X28869165Y-197363146D01*
X28652200Y-197297330D01*
X28452245Y-197190452D01*
X28276982Y-197046618D01*
X28133148Y-196871355D01*
X28026270Y-196671400D01*
X27960454Y-196454435D01*
X27938231Y-196228800D01*
X27960454Y-196003165D01*
X28026270Y-195786200D01*
X28133148Y-195586245D01*
X28276982Y-195410982D01*
X28452245Y-195267148D01*
X28652200Y-195160270D01*
X28869165Y-195094454D01*
X29038257Y-195077800D01*
X30951343Y-195077800D01*
X31120435Y-195094454D01*
X31120435Y-195094454D01*
G37*
G36*
X35735800Y-194679800D02*
G01*
X33433800Y-194679800D01*
X33433800Y-190577800D01*
X35735800Y-190577800D01*
X35735800Y-194679800D01*
X35735800Y-194679800D01*
G37*
G36*
X49375600Y-194679800D02*
G01*
X47073600Y-194679800D01*
X47073600Y-190577800D01*
X49375600Y-190577800D01*
X49375600Y-194679800D01*
X49375600Y-194679800D01*
G37*
G36*
X38660234Y-186194454D02*
G01*
X38877199Y-186260270D01*
X39077154Y-186367148D01*
X39252418Y-186510982D01*
X39396252Y-186686245D01*
X39503130Y-186886200D01*
X39568946Y-187103165D01*
X39585600Y-187272257D01*
X39585600Y-188442155D01*
X39589443Y-188481173D01*
X39600824Y-188518691D01*
X39619306Y-188553268D01*
X39644178Y-188583576D01*
X39674486Y-188608448D01*
X39709063Y-188626930D01*
X39746581Y-188638311D01*
X39785599Y-188642154D01*
X39824617Y-188638311D01*
X39862135Y-188626930D01*
X39896712Y-188608448D01*
X39927020Y-188583576D01*
X39951892Y-188553268D01*
X39970374Y-188518691D01*
X39984633Y-188461765D01*
X40000254Y-188303166D01*
X40066070Y-188086201D01*
X40172948Y-187886246D01*
X40316782Y-187710982D01*
X40492045Y-187567148D01*
X40692000Y-187460270D01*
X40908965Y-187394454D01*
X41134600Y-187372231D01*
X41360234Y-187394454D01*
X41577199Y-187460270D01*
X41777154Y-187567148D01*
X41952418Y-187710982D01*
X42096252Y-187886245D01*
X42203130Y-188086200D01*
X42268946Y-188303165D01*
X42285600Y-188472257D01*
X42285600Y-190385343D01*
X42268946Y-190554435D01*
X42203130Y-190771400D01*
X42096252Y-190971355D01*
X41952418Y-191146618D01*
X41777155Y-191290452D01*
X41577200Y-191397330D01*
X41360235Y-191463146D01*
X41134600Y-191485369D01*
X40908966Y-191463146D01*
X40692001Y-191397330D01*
X40492046Y-191290452D01*
X40316783Y-191146618D01*
X40172949Y-190971355D01*
X40066071Y-190771400D01*
X40000255Y-190554435D01*
X39983600Y-190385343D01*
X39983600Y-189215446D01*
X39979757Y-189176428D01*
X39968376Y-189138910D01*
X39949894Y-189104333D01*
X39925022Y-189074025D01*
X39894714Y-189049153D01*
X39860137Y-189030671D01*
X39822619Y-189019290D01*
X39783601Y-189015447D01*
X39744583Y-189019290D01*
X39707065Y-189030671D01*
X39672488Y-189049153D01*
X39642180Y-189074025D01*
X39617308Y-189104333D01*
X39598826Y-189138910D01*
X39584567Y-189195836D01*
X39568946Y-189354435D01*
X39503130Y-189571400D01*
X39396252Y-189771355D01*
X39252418Y-189946618D01*
X39077155Y-190090452D01*
X38877200Y-190197330D01*
X38660235Y-190263146D01*
X38434600Y-190285369D01*
X38208966Y-190263146D01*
X37992001Y-190197330D01*
X37792046Y-190090452D01*
X37616783Y-189946618D01*
X37472949Y-189771355D01*
X37366071Y-189571400D01*
X37300255Y-189354435D01*
X37283600Y-189185343D01*
X37283600Y-187272258D01*
X37300254Y-187103166D01*
X37366070Y-186886201D01*
X37472948Y-186686246D01*
X37616782Y-186510982D01*
X37792045Y-186367148D01*
X37992000Y-186260270D01*
X38208965Y-186194454D01*
X38434600Y-186172231D01*
X38660234Y-186194454D01*
X38660234Y-186194454D01*
G37*
G36*
X25020434Y-186194454D02*
G01*
X25237399Y-186260270D01*
X25437354Y-186367148D01*
X25612618Y-186510982D01*
X25756452Y-186686245D01*
X25863330Y-186886200D01*
X25929146Y-187103165D01*
X25945800Y-187272257D01*
X25945800Y-188442155D01*
X25949643Y-188481173D01*
X25961024Y-188518691D01*
X25979506Y-188553268D01*
X26004378Y-188583576D01*
X26034686Y-188608448D01*
X26069263Y-188626930D01*
X26106781Y-188638311D01*
X26145799Y-188642154D01*
X26184817Y-188638311D01*
X26222335Y-188626930D01*
X26256912Y-188608448D01*
X26287220Y-188583576D01*
X26312092Y-188553268D01*
X26330574Y-188518691D01*
X26344833Y-188461765D01*
X26360454Y-188303166D01*
X26426270Y-188086201D01*
X26533148Y-187886246D01*
X26676982Y-187710982D01*
X26852245Y-187567148D01*
X27052200Y-187460270D01*
X27269165Y-187394454D01*
X27494800Y-187372231D01*
X27720434Y-187394454D01*
X27937399Y-187460270D01*
X28137354Y-187567148D01*
X28312618Y-187710982D01*
X28456452Y-187886245D01*
X28563330Y-188086200D01*
X28629146Y-188303165D01*
X28645800Y-188472257D01*
X28645800Y-190385343D01*
X28629146Y-190554435D01*
X28563330Y-190771400D01*
X28456452Y-190971355D01*
X28312618Y-191146618D01*
X28137355Y-191290452D01*
X27937400Y-191397330D01*
X27720435Y-191463146D01*
X27494800Y-191485369D01*
X27269166Y-191463146D01*
X27052201Y-191397330D01*
X26852246Y-191290452D01*
X26676983Y-191146618D01*
X26533149Y-190971355D01*
X26426271Y-190771400D01*
X26360455Y-190554435D01*
X26343800Y-190385343D01*
X26343800Y-189215446D01*
X26339957Y-189176428D01*
X26328576Y-189138910D01*
X26310094Y-189104333D01*
X26285222Y-189074025D01*
X26254914Y-189049153D01*
X26220337Y-189030671D01*
X26182819Y-189019290D01*
X26143801Y-189015447D01*
X26104783Y-189019290D01*
X26067265Y-189030671D01*
X26032688Y-189049153D01*
X26002380Y-189074025D01*
X25977508Y-189104333D01*
X25959026Y-189138910D01*
X25944767Y-189195836D01*
X25929146Y-189354435D01*
X25863330Y-189571400D01*
X25756452Y-189771355D01*
X25612618Y-189946618D01*
X25437355Y-190090452D01*
X25237400Y-190197330D01*
X25020435Y-190263146D01*
X24794800Y-190285369D01*
X24569166Y-190263146D01*
X24352201Y-190197330D01*
X24152246Y-190090452D01*
X23976983Y-189946618D01*
X23833149Y-189771355D01*
X23726271Y-189571400D01*
X23660455Y-189354435D01*
X23643800Y-189185343D01*
X23643800Y-187272258D01*
X23660454Y-187103166D01*
X23726270Y-186886201D01*
X23833148Y-186686246D01*
X23976982Y-186510982D01*
X24152245Y-186367148D01*
X24352200Y-186260270D01*
X24569165Y-186194454D01*
X24794800Y-186172231D01*
X25020434Y-186194454D01*
X25020434Y-186194454D01*
G37*
G36*
X72204000Y-184776663D02*
G01*
X72220551Y-184781684D01*
X72235812Y-184789842D01*
X72249184Y-184800816D01*
X72260158Y-184814188D01*
X72268316Y-184829449D01*
X72273337Y-184846000D01*
X72276000Y-184873043D01*
X72276000Y-189226957D01*
X72273337Y-189254000D01*
X72268316Y-189270551D01*
X72260158Y-189285812D01*
X72249184Y-189299184D01*
X72235812Y-189310158D01*
X72220551Y-189318316D01*
X72204000Y-189323337D01*
X72176957Y-189326000D01*
X69073043Y-189326000D01*
X69046000Y-189323337D01*
X69029449Y-189318316D01*
X69014188Y-189310158D01*
X69000816Y-189299184D01*
X68989842Y-189285812D01*
X68981684Y-189270551D01*
X68976663Y-189254000D01*
X68974000Y-189226957D01*
X68974000Y-184873043D01*
X68976663Y-184846000D01*
X68981684Y-184829449D01*
X68989842Y-184814188D01*
X69000816Y-184800816D01*
X69014188Y-184789842D01*
X69029449Y-184781684D01*
X69046000Y-184776663D01*
X69073043Y-184774000D01*
X72176957Y-184774000D01*
X72204000Y-184776663D01*
X72204000Y-184776663D01*
G37*
G36*
X77404000Y-184776663D02*
G01*
X77420551Y-184781684D01*
X77435812Y-184789842D01*
X77449184Y-184800816D01*
X77460158Y-184814188D01*
X77468316Y-184829449D01*
X77473337Y-184846000D01*
X77476000Y-184873043D01*
X77476000Y-189226957D01*
X77473337Y-189254000D01*
X77468316Y-189270551D01*
X77460158Y-189285812D01*
X77449184Y-189299184D01*
X77435812Y-189310158D01*
X77420551Y-189318316D01*
X77404000Y-189323337D01*
X77376957Y-189326000D01*
X74273043Y-189326000D01*
X74246000Y-189323337D01*
X74229449Y-189318316D01*
X74214188Y-189310158D01*
X74200816Y-189299184D01*
X74189842Y-189285812D01*
X74181684Y-189270551D01*
X74176663Y-189254000D01*
X74174000Y-189226957D01*
X74174000Y-184873043D01*
X74176663Y-184846000D01*
X74181684Y-184829449D01*
X74189842Y-184814188D01*
X74200816Y-184800816D01*
X74214188Y-184789842D01*
X74229449Y-184781684D01*
X74246000Y-184776663D01*
X74273043Y-184774000D01*
X77376957Y-184774000D01*
X77404000Y-184776663D01*
X77404000Y-184776663D01*
G37*
G36*
X56276386Y-181902919D02*
G01*
X56305202Y-181911660D01*
X56331759Y-181925856D01*
X56355039Y-181944961D01*
X56374144Y-181968241D01*
X56388340Y-181994798D01*
X56397081Y-182023614D01*
X56401000Y-182063408D01*
X56401000Y-183586592D01*
X56397081Y-183626386D01*
X56388340Y-183655202D01*
X56374144Y-183681759D01*
X56344404Y-183717998D01*
X56340286Y-183722115D01*
X56318503Y-183754713D01*
X56303497Y-183790934D01*
X56295846Y-183829387D01*
X56295844Y-183868594D01*
X56303491Y-183907048D01*
X56318493Y-183943271D01*
X56340273Y-183975871D01*
X56367995Y-184003596D01*
X56400593Y-184025379D01*
X56436814Y-184040385D01*
X56475267Y-184048036D01*
X56494881Y-184049000D01*
X56701957Y-184049000D01*
X56729000Y-184051663D01*
X56745551Y-184056684D01*
X56760812Y-184064842D01*
X56774184Y-184075816D01*
X56785158Y-184089188D01*
X56793316Y-184104449D01*
X56798337Y-184121000D01*
X56801000Y-184148043D01*
X56801000Y-188501957D01*
X56798337Y-188529000D01*
X56793316Y-188545551D01*
X56785158Y-188560812D01*
X56774184Y-188574184D01*
X56760812Y-188585158D01*
X56745551Y-188593316D01*
X56729000Y-188598337D01*
X56701957Y-188601000D01*
X53598043Y-188601000D01*
X53571000Y-188598337D01*
X53554449Y-188593316D01*
X53539188Y-188585158D01*
X53525816Y-188574184D01*
X53514842Y-188560812D01*
X53506684Y-188545551D01*
X53501663Y-188529000D01*
X53499000Y-188501957D01*
X53499000Y-184148043D01*
X53501663Y-184121000D01*
X53506684Y-184104449D01*
X53514842Y-184089188D01*
X53525816Y-184075816D01*
X53539188Y-184064842D01*
X53554449Y-184056684D01*
X53571000Y-184051663D01*
X53598043Y-184049000D01*
X55005119Y-184049000D01*
X55044137Y-184045157D01*
X55081655Y-184033776D01*
X55116232Y-184015294D01*
X55146540Y-183990422D01*
X55171412Y-183960114D01*
X55189894Y-183925537D01*
X55201275Y-183888019D01*
X55205118Y-183849001D01*
X55201275Y-183809983D01*
X55189894Y-183772465D01*
X55171412Y-183737888D01*
X55157154Y-183720514D01*
X55157457Y-183720265D01*
X55125856Y-183681759D01*
X55111660Y-183655202D01*
X55102919Y-183626386D01*
X55099000Y-183586592D01*
X55099000Y-182063408D01*
X55102919Y-182023614D01*
X55111660Y-181994798D01*
X55125856Y-181968241D01*
X55144961Y-181944961D01*
X55168241Y-181925856D01*
X55194798Y-181911660D01*
X55223614Y-181902919D01*
X55263408Y-181899000D01*
X56236592Y-181899000D01*
X56276386Y-181902919D01*
X56276386Y-181902919D01*
G37*
G36*
X59877618Y-181908420D02*
G01*
X60000333Y-181945645D01*
X60113425Y-182006095D01*
X60212554Y-182087447D01*
X60293906Y-182186574D01*
X60354355Y-182299666D01*
X60391580Y-182422381D01*
X60401000Y-182518027D01*
X60401000Y-183131973D01*
X60391580Y-183227619D01*
X60354355Y-183350334D01*
X60293906Y-183463426D01*
X60212553Y-183562553D01*
X60113426Y-183643906D01*
X60059709Y-183672618D01*
X60027110Y-183694400D01*
X59999386Y-183722123D01*
X59977604Y-183754722D01*
X59962601Y-183790945D01*
X59954952Y-183829398D01*
X59954952Y-183868605D01*
X59962601Y-183907058D01*
X59977605Y-183943280D01*
X59999387Y-183975879D01*
X60027110Y-184003603D01*
X60059709Y-184025385D01*
X60095932Y-184040388D01*
X60153988Y-184049000D01*
X61901957Y-184049000D01*
X61929000Y-184051663D01*
X61945551Y-184056684D01*
X61960812Y-184064842D01*
X61974184Y-184075816D01*
X61985158Y-184089188D01*
X61993316Y-184104449D01*
X61998337Y-184121000D01*
X62001000Y-184148043D01*
X62001000Y-188501957D01*
X61998337Y-188529000D01*
X61993316Y-188545551D01*
X61985158Y-188560812D01*
X61974184Y-188574184D01*
X61960812Y-188585158D01*
X61945551Y-188593316D01*
X61929000Y-188598337D01*
X61901957Y-188601000D01*
X58798043Y-188601000D01*
X58771000Y-188598337D01*
X58754449Y-188593316D01*
X58739188Y-188585158D01*
X58725816Y-188574184D01*
X58714842Y-188560812D01*
X58706684Y-188545551D01*
X58701663Y-188529000D01*
X58699000Y-188501957D01*
X58699000Y-184148043D01*
X58701663Y-184121000D01*
X58706684Y-184104449D01*
X58714842Y-184089188D01*
X58725816Y-184075816D01*
X58739188Y-184064842D01*
X58754449Y-184056684D01*
X58771000Y-184051663D01*
X58798043Y-184049000D01*
X59346013Y-184049000D01*
X59385031Y-184045157D01*
X59422549Y-184033776D01*
X59457126Y-184015294D01*
X59487434Y-183990422D01*
X59512306Y-183960114D01*
X59530788Y-183925537D01*
X59542169Y-183888019D01*
X59546012Y-183849001D01*
X59542169Y-183809983D01*
X59530788Y-183772465D01*
X59512306Y-183737888D01*
X59487434Y-183707580D01*
X59440292Y-183672618D01*
X59386575Y-183643906D01*
X59287448Y-183562553D01*
X59206095Y-183463426D01*
X59145645Y-183350332D01*
X59108420Y-183227618D01*
X59099000Y-183131973D01*
X59099000Y-182518028D01*
X59108420Y-182422383D01*
X59108420Y-182422382D01*
X59145645Y-182299667D01*
X59206095Y-182186575D01*
X59287447Y-182087446D01*
X59386574Y-182006094D01*
X59499666Y-181945645D01*
X59622381Y-181908420D01*
X59750000Y-181895851D01*
X59877618Y-181908420D01*
X59877618Y-181908420D01*
G37*
G36*
X35220435Y-183894454D02*
G01*
X35437400Y-183960270D01*
X35637355Y-184067148D01*
X35812618Y-184210982D01*
X35956452Y-184386245D01*
X36063330Y-184586200D01*
X36129146Y-184803165D01*
X36151369Y-185028800D01*
X36129146Y-185254435D01*
X36063330Y-185471400D01*
X35956452Y-185671355D01*
X35812618Y-185846618D01*
X35637355Y-185990452D01*
X35437400Y-186097330D01*
X35220435Y-186163146D01*
X35051343Y-186179800D01*
X33138257Y-186179800D01*
X32969165Y-186163146D01*
X32752200Y-186097330D01*
X32552245Y-185990452D01*
X32376982Y-185846618D01*
X32233148Y-185671355D01*
X32126270Y-185471400D01*
X32060454Y-185254435D01*
X32038231Y-185028800D01*
X32060454Y-184803165D01*
X32126270Y-184586200D01*
X32233148Y-184386245D01*
X32376982Y-184210982D01*
X32552245Y-184067148D01*
X32752200Y-183960270D01*
X32969165Y-183894454D01*
X33138257Y-183877800D01*
X35051343Y-183877800D01*
X35220435Y-183894454D01*
X35220435Y-183894454D01*
G37*
G36*
X48860235Y-183894454D02*
G01*
X49077200Y-183960270D01*
X49277155Y-184067148D01*
X49452418Y-184210982D01*
X49596252Y-184386245D01*
X49703130Y-184586200D01*
X49768946Y-184803165D01*
X49791169Y-185028800D01*
X49768946Y-185254435D01*
X49703130Y-185471400D01*
X49596252Y-185671355D01*
X49452418Y-185846618D01*
X49277155Y-185990452D01*
X49077200Y-186097330D01*
X48860235Y-186163146D01*
X48691143Y-186179800D01*
X46778057Y-186179800D01*
X46608965Y-186163146D01*
X46392000Y-186097330D01*
X46192045Y-185990452D01*
X46016782Y-185846618D01*
X45872948Y-185671355D01*
X45766070Y-185471400D01*
X45700254Y-185254435D01*
X45678031Y-185028800D01*
X45700254Y-184803165D01*
X45766070Y-184586200D01*
X45872948Y-184386245D01*
X46016782Y-184210982D01*
X46192045Y-184067148D01*
X46392000Y-183960270D01*
X46608965Y-183894454D01*
X46778057Y-183877800D01*
X48691143Y-183877800D01*
X48860235Y-183894454D01*
X48860235Y-183894454D01*
G37*
G36*
X25390011Y-184059881D02*
G01*
X25420407Y-184069102D01*
X25448422Y-184084076D01*
X25472974Y-184104226D01*
X25493124Y-184128778D01*
X25508098Y-184156793D01*
X25517319Y-184187189D01*
X25521400Y-184228626D01*
X25521400Y-184934974D01*
X25517319Y-184976411D01*
X25508098Y-185006807D01*
X25493124Y-185034822D01*
X25472974Y-185059374D01*
X25448422Y-185079524D01*
X25420407Y-185094498D01*
X25390011Y-185103719D01*
X25348574Y-185107800D01*
X24542226Y-185107800D01*
X24500789Y-185103719D01*
X24470393Y-185094498D01*
X24442378Y-185079524D01*
X24417826Y-185059374D01*
X24397676Y-185034822D01*
X24382702Y-185006807D01*
X24373481Y-184976411D01*
X24369400Y-184934974D01*
X24369400Y-184228626D01*
X24373481Y-184187189D01*
X24382702Y-184156793D01*
X24397676Y-184128778D01*
X24417826Y-184104226D01*
X24442378Y-184084076D01*
X24470393Y-184069102D01*
X24500789Y-184059881D01*
X24542226Y-184055800D01*
X25348574Y-184055800D01*
X25390011Y-184059881D01*
X25390011Y-184059881D01*
G37*
G36*
X27140011Y-184059881D02*
G01*
X27170407Y-184069102D01*
X27198422Y-184084076D01*
X27222974Y-184104226D01*
X27243124Y-184128778D01*
X27258098Y-184156793D01*
X27267319Y-184187189D01*
X27271400Y-184228626D01*
X27271400Y-184934974D01*
X27267319Y-184976411D01*
X27258098Y-185006807D01*
X27243124Y-185034822D01*
X27222974Y-185059374D01*
X27198422Y-185079524D01*
X27170407Y-185094498D01*
X27140011Y-185103719D01*
X27098574Y-185107800D01*
X26292226Y-185107800D01*
X26250789Y-185103719D01*
X26220393Y-185094498D01*
X26192378Y-185079524D01*
X26167826Y-185059374D01*
X26147676Y-185034822D01*
X26132702Y-185006807D01*
X26123481Y-184976411D01*
X26119400Y-184934974D01*
X26119400Y-184228626D01*
X26123481Y-184187189D01*
X26132702Y-184156793D01*
X26147676Y-184128778D01*
X26167826Y-184104226D01*
X26192378Y-184084076D01*
X26220393Y-184069102D01*
X26250789Y-184059881D01*
X26292226Y-184055800D01*
X27098574Y-184055800D01*
X27140011Y-184059881D01*
X27140011Y-184059881D01*
G37*
G36*
X73352618Y-182133420D02*
G01*
X73475333Y-182170645D01*
X73588425Y-182231095D01*
X73687554Y-182312447D01*
X73768906Y-182411574D01*
X73829355Y-182524666D01*
X73866580Y-182647381D01*
X73876000Y-182743027D01*
X73876000Y-183356973D01*
X73866580Y-183452619D01*
X73829355Y-183575334D01*
X73768906Y-183688426D01*
X73687553Y-183787553D01*
X73588426Y-183868906D01*
X73475334Y-183929355D01*
X73352619Y-183966580D01*
X73225000Y-183979149D01*
X73097382Y-183966580D01*
X72974667Y-183929355D01*
X72861575Y-183868906D01*
X72762448Y-183787553D01*
X72681095Y-183688426D01*
X72620645Y-183575332D01*
X72586699Y-183463427D01*
X72583420Y-183452619D01*
X72574000Y-183356973D01*
X72574000Y-182743028D01*
X72583420Y-182647382D01*
X72620645Y-182524667D01*
X72681095Y-182411575D01*
X72762447Y-182312446D01*
X72861574Y-182231094D01*
X72974666Y-182170645D01*
X73097381Y-182133420D01*
X73225000Y-182120851D01*
X73352618Y-182133420D01*
X73352618Y-182133420D01*
G37*
G36*
X75352618Y-182133420D02*
G01*
X75475333Y-182170645D01*
X75588425Y-182231095D01*
X75687554Y-182312447D01*
X75768906Y-182411574D01*
X75829355Y-182524666D01*
X75866580Y-182647381D01*
X75876000Y-182743027D01*
X75876000Y-183356973D01*
X75866580Y-183452619D01*
X75829355Y-183575334D01*
X75768906Y-183688426D01*
X75687553Y-183787553D01*
X75588426Y-183868906D01*
X75475334Y-183929355D01*
X75352619Y-183966580D01*
X75225000Y-183979149D01*
X75097382Y-183966580D01*
X74974667Y-183929355D01*
X74861575Y-183868906D01*
X74762448Y-183787553D01*
X74681095Y-183688426D01*
X74620645Y-183575332D01*
X74586699Y-183463427D01*
X74583420Y-183452619D01*
X74574000Y-183356973D01*
X74574000Y-182743028D01*
X74583420Y-182647382D01*
X74620645Y-182524667D01*
X74681095Y-182411575D01*
X74762447Y-182312446D01*
X74861574Y-182231094D01*
X74974666Y-182170645D01*
X75097381Y-182133420D01*
X75225000Y-182120851D01*
X75352618Y-182133420D01*
X75352618Y-182133420D01*
G37*
G36*
X71751386Y-182127919D02*
G01*
X71780202Y-182136660D01*
X71806759Y-182150856D01*
X71830039Y-182169961D01*
X71849144Y-182193241D01*
X71863340Y-182219798D01*
X71872081Y-182248614D01*
X71876000Y-182288408D01*
X71876000Y-183811592D01*
X71872081Y-183851386D01*
X71863340Y-183880202D01*
X71849144Y-183906759D01*
X71830039Y-183930039D01*
X71806759Y-183949144D01*
X71780202Y-183963340D01*
X71751386Y-183972081D01*
X71711592Y-183976000D01*
X70738408Y-183976000D01*
X70698614Y-183972081D01*
X70669798Y-183963340D01*
X70643241Y-183949144D01*
X70619961Y-183930039D01*
X70600856Y-183906759D01*
X70586660Y-183880202D01*
X70577919Y-183851386D01*
X70574000Y-183811592D01*
X70574000Y-182288408D01*
X70577919Y-182248614D01*
X70586660Y-182219798D01*
X70600856Y-182193241D01*
X70619961Y-182169961D01*
X70643241Y-182150856D01*
X70669798Y-182136660D01*
X70698614Y-182127919D01*
X70738408Y-182124000D01*
X71711592Y-182124000D01*
X71751386Y-182127919D01*
X71751386Y-182127919D01*
G37*
G36*
X57877618Y-181908420D02*
G01*
X58000333Y-181945645D01*
X58113425Y-182006095D01*
X58212554Y-182087447D01*
X58293906Y-182186574D01*
X58354355Y-182299666D01*
X58391580Y-182422381D01*
X58401000Y-182518027D01*
X58401000Y-183131973D01*
X58391580Y-183227619D01*
X58354355Y-183350334D01*
X58293906Y-183463426D01*
X58212553Y-183562553D01*
X58113426Y-183643906D01*
X58000334Y-183704355D01*
X57877619Y-183741580D01*
X57750000Y-183754149D01*
X57622382Y-183741580D01*
X57499667Y-183704355D01*
X57386575Y-183643906D01*
X57287448Y-183562553D01*
X57206095Y-183463426D01*
X57145645Y-183350332D01*
X57108420Y-183227618D01*
X57099000Y-183131973D01*
X57099000Y-182518028D01*
X57108420Y-182422383D01*
X57108420Y-182422382D01*
X57145645Y-182299667D01*
X57206095Y-182186575D01*
X57287447Y-182087446D01*
X57386574Y-182006094D01*
X57499666Y-181945645D01*
X57622381Y-181908420D01*
X57750000Y-181895851D01*
X57877618Y-181908420D01*
X57877618Y-181908420D01*
G37*
G36*
X39130111Y-181215081D02*
G01*
X39160507Y-181224302D01*
X39188522Y-181239276D01*
X39213074Y-181259426D01*
X39233224Y-181283978D01*
X39248198Y-181311993D01*
X39257419Y-181342389D01*
X39261500Y-181383826D01*
X39261500Y-182090174D01*
X39257419Y-182131611D01*
X39248198Y-182162007D01*
X39233224Y-182190022D01*
X39213074Y-182214574D01*
X39188522Y-182234724D01*
X39160507Y-182249698D01*
X39130111Y-182258919D01*
X39088674Y-182263000D01*
X38282326Y-182263000D01*
X38240889Y-182258919D01*
X38210493Y-182249698D01*
X38182478Y-182234724D01*
X38157926Y-182214574D01*
X38137776Y-182190022D01*
X38122802Y-182162007D01*
X38113581Y-182131611D01*
X38109500Y-182090174D01*
X38109500Y-181383826D01*
X38113581Y-181342389D01*
X38122802Y-181311993D01*
X38137776Y-181283978D01*
X38157926Y-181259426D01*
X38182478Y-181239276D01*
X38210493Y-181224302D01*
X38240889Y-181215081D01*
X38282326Y-181211000D01*
X39088674Y-181211000D01*
X39130111Y-181215081D01*
X39130111Y-181215081D01*
G37*
G36*
X40880111Y-181215081D02*
G01*
X40910507Y-181224302D01*
X40938522Y-181239276D01*
X40963074Y-181259426D01*
X40983224Y-181283978D01*
X40998198Y-181311993D01*
X41007419Y-181342389D01*
X41011500Y-181383826D01*
X41011500Y-182090174D01*
X41007419Y-182131611D01*
X40998198Y-182162007D01*
X40983224Y-182190022D01*
X40963074Y-182214574D01*
X40938522Y-182234724D01*
X40910507Y-182249698D01*
X40880111Y-182258919D01*
X40838674Y-182263000D01*
X40032326Y-182263000D01*
X39990889Y-182258919D01*
X39960493Y-182249698D01*
X39932478Y-182234724D01*
X39907926Y-182214574D01*
X39887776Y-182190022D01*
X39872802Y-182162007D01*
X39863581Y-182131611D01*
X39859500Y-182090174D01*
X39859500Y-181383826D01*
X39863581Y-181342389D01*
X39872802Y-181311993D01*
X39887776Y-181283978D01*
X39907926Y-181259426D01*
X39932478Y-181239276D01*
X39960493Y-181224302D01*
X39990889Y-181215081D01*
X40032326Y-181211000D01*
X40838674Y-181211000D01*
X40880111Y-181215081D01*
X40880111Y-181215081D01*
G37*
G36*
X30557111Y-180770081D02*
G01*
X30587507Y-180779302D01*
X30615522Y-180794276D01*
X30640074Y-180814426D01*
X30660224Y-180838978D01*
X30675198Y-180866993D01*
X30684419Y-180897389D01*
X30688500Y-180938826D01*
X30688500Y-181745174D01*
X30684419Y-181786611D01*
X30675198Y-181817007D01*
X30660224Y-181845022D01*
X30640074Y-181869574D01*
X30615522Y-181889724D01*
X30587507Y-181904698D01*
X30557111Y-181913919D01*
X30515674Y-181918000D01*
X29809326Y-181918000D01*
X29767889Y-181913919D01*
X29737493Y-181904698D01*
X29709478Y-181889724D01*
X29684926Y-181869574D01*
X29664776Y-181845022D01*
X29649802Y-181817007D01*
X29640581Y-181786611D01*
X29636500Y-181745174D01*
X29636500Y-180938826D01*
X29640581Y-180897389D01*
X29649802Y-180866993D01*
X29664776Y-180838978D01*
X29684926Y-180814426D01*
X29709478Y-180794276D01*
X29737493Y-180779302D01*
X29767889Y-180770081D01*
X29809326Y-180766000D01*
X30515674Y-180766000D01*
X30557111Y-180770081D01*
X30557111Y-180770081D01*
G37*
G36*
X72294611Y-180528081D02*
G01*
X72325007Y-180537302D01*
X72353022Y-180552276D01*
X72377574Y-180572426D01*
X72397724Y-180596978D01*
X72412698Y-180624993D01*
X72421919Y-180655389D01*
X72426000Y-180696826D01*
X72426000Y-181403174D01*
X72421919Y-181444611D01*
X72412698Y-181475007D01*
X72397724Y-181503022D01*
X72377574Y-181527574D01*
X72353022Y-181547724D01*
X72325007Y-181562698D01*
X72294611Y-181571919D01*
X72253174Y-181576000D01*
X71446826Y-181576000D01*
X71405389Y-181571919D01*
X71374993Y-181562698D01*
X71346978Y-181547724D01*
X71322426Y-181527574D01*
X71302276Y-181503022D01*
X71287302Y-181475007D01*
X71278081Y-181444611D01*
X71274000Y-181403174D01*
X71274000Y-180696826D01*
X71278081Y-180655389D01*
X71287302Y-180624993D01*
X71302276Y-180596978D01*
X71322426Y-180572426D01*
X71346978Y-180552276D01*
X71374993Y-180537302D01*
X71405389Y-180528081D01*
X71446826Y-180524000D01*
X72253174Y-180524000D01*
X72294611Y-180528081D01*
X72294611Y-180528081D01*
G37*
G36*
X74044611Y-180528081D02*
G01*
X74075007Y-180537302D01*
X74103022Y-180552276D01*
X74127574Y-180572426D01*
X74147724Y-180596978D01*
X74162698Y-180624993D01*
X74171919Y-180655389D01*
X74176000Y-180696826D01*
X74176000Y-181403174D01*
X74171919Y-181444611D01*
X74162698Y-181475007D01*
X74147724Y-181503022D01*
X74127574Y-181527574D01*
X74103022Y-181547724D01*
X74075007Y-181562698D01*
X74044611Y-181571919D01*
X74003174Y-181576000D01*
X73196826Y-181576000D01*
X73155389Y-181571919D01*
X73124993Y-181562698D01*
X73096978Y-181547724D01*
X73072426Y-181527574D01*
X73052276Y-181503022D01*
X73037302Y-181475007D01*
X73028081Y-181444611D01*
X73024000Y-181403174D01*
X73024000Y-180696826D01*
X73028081Y-180655389D01*
X73037302Y-180624993D01*
X73052276Y-180596978D01*
X73072426Y-180572426D01*
X73096978Y-180552276D01*
X73124993Y-180537302D01*
X73155389Y-180528081D01*
X73196826Y-180524000D01*
X74003174Y-180524000D01*
X74044611Y-180528081D01*
X74044611Y-180528081D01*
G37*
G36*
X58569611Y-180053081D02*
G01*
X58600007Y-180062302D01*
X58609442Y-180067345D01*
X58645664Y-180082348D01*
X58684117Y-180089997D01*
X58723324Y-180089997D01*
X58753420Y-180084010D01*
X58734706Y-180106813D01*
X58716224Y-180141390D01*
X58704843Y-180178909D01*
X58701000Y-180217927D01*
X58701000Y-180928174D01*
X58696919Y-180969611D01*
X58687698Y-181000007D01*
X58672724Y-181028022D01*
X58652574Y-181052574D01*
X58628022Y-181072724D01*
X58600007Y-181087698D01*
X58569611Y-181096919D01*
X58528174Y-181101000D01*
X57721826Y-181101000D01*
X57680389Y-181096919D01*
X57649993Y-181087698D01*
X57621978Y-181072724D01*
X57597426Y-181052574D01*
X57577276Y-181028022D01*
X57562302Y-181000007D01*
X57553081Y-180969611D01*
X57549000Y-180928174D01*
X57549000Y-180221826D01*
X57553081Y-180180389D01*
X57562302Y-180149993D01*
X57577276Y-180121978D01*
X57597426Y-180097426D01*
X57621978Y-180077276D01*
X57649993Y-180062302D01*
X57680389Y-180053081D01*
X57721826Y-180049000D01*
X58528174Y-180049000D01*
X58569611Y-180053081D01*
X58569611Y-180053081D01*
G37*
G36*
X56819611Y-180053081D02*
G01*
X56850007Y-180062302D01*
X56878022Y-180077276D01*
X56902574Y-180097426D01*
X56922724Y-180121978D01*
X56937698Y-180149993D01*
X56946919Y-180180389D01*
X56951000Y-180221826D01*
X56951000Y-180928174D01*
X56946919Y-180969611D01*
X56937698Y-181000007D01*
X56922724Y-181028022D01*
X56902574Y-181052574D01*
X56878022Y-181072724D01*
X56850007Y-181087698D01*
X56819611Y-181096919D01*
X56778174Y-181101000D01*
X55971826Y-181101000D01*
X55930389Y-181096919D01*
X55899993Y-181087698D01*
X55871978Y-181072724D01*
X55847426Y-181052574D01*
X55827276Y-181028022D01*
X55812302Y-181000007D01*
X55803081Y-180969611D01*
X55799000Y-180928174D01*
X55799000Y-180221826D01*
X55803081Y-180180389D01*
X55812302Y-180149993D01*
X55827276Y-180121978D01*
X55847426Y-180097426D01*
X55871978Y-180077276D01*
X55899993Y-180062302D01*
X55930389Y-180053081D01*
X55971826Y-180049000D01*
X56778174Y-180049000D01*
X56819611Y-180053081D01*
X56819611Y-180053081D01*
G37*
G36*
X77176000Y-177501000D02*
G01*
X76311255Y-177501000D01*
X76272237Y-177504843D01*
X76234719Y-177516224D01*
X76200142Y-177534706D01*
X76169834Y-177559578D01*
X76144962Y-177589886D01*
X76126480Y-177624463D01*
X76115099Y-177661981D01*
X76111256Y-177700999D01*
X76115099Y-177740017D01*
X76126480Y-177777535D01*
X76144962Y-177812112D01*
X76169834Y-177842420D01*
X76200142Y-177867292D01*
X76234716Y-177885772D01*
X76499674Y-177995521D01*
X76753705Y-178165259D01*
X76969741Y-178381295D01*
X77139479Y-178635326D01*
X77256396Y-178917590D01*
X77316000Y-179217240D01*
X77316000Y-179522760D01*
X77256396Y-179822410D01*
X77139479Y-180104674D01*
X76969741Y-180358705D01*
X76753705Y-180574741D01*
X76499674Y-180744479D01*
X76217410Y-180861396D01*
X75917760Y-180921000D01*
X75612240Y-180921000D01*
X75312590Y-180861396D01*
X75030326Y-180744479D01*
X74776295Y-180574741D01*
X74560259Y-180358705D01*
X74390521Y-180104674D01*
X74273604Y-179822410D01*
X74214000Y-179522760D01*
X74214000Y-179217240D01*
X74273604Y-178917590D01*
X74390521Y-178635326D01*
X74560259Y-178381295D01*
X74776295Y-178165259D01*
X75030326Y-177995521D01*
X75295284Y-177885772D01*
X75329858Y-177867292D01*
X75360166Y-177842420D01*
X75385038Y-177812113D01*
X75403520Y-177777535D01*
X75414901Y-177740017D01*
X75418744Y-177700999D01*
X75414901Y-177661981D01*
X75403520Y-177624463D01*
X75385038Y-177589886D01*
X75360166Y-177559578D01*
X75329859Y-177534706D01*
X75295281Y-177516224D01*
X75257763Y-177504843D01*
X75218745Y-177501000D01*
X74774000Y-177501000D01*
X74774000Y-174899000D01*
X77176000Y-174899000D01*
X77176000Y-177501000D01*
X77176000Y-177501000D01*
G37*
G36*
X69867410Y-177878604D02*
G01*
X70149674Y-177995521D01*
X70403705Y-178165259D01*
X70619741Y-178381295D01*
X70789479Y-178635326D01*
X70906396Y-178917590D01*
X70966000Y-179217240D01*
X70966000Y-179522760D01*
X70906396Y-179822410D01*
X70789479Y-180104674D01*
X70619741Y-180358705D01*
X70403705Y-180574741D01*
X70149674Y-180744479D01*
X69867410Y-180861396D01*
X69567760Y-180921000D01*
X69262240Y-180921000D01*
X68962590Y-180861396D01*
X68680326Y-180744479D01*
X68426295Y-180574741D01*
X68210259Y-180358705D01*
X68040521Y-180104674D01*
X67923604Y-179822410D01*
X67864000Y-179522760D01*
X67864000Y-179217240D01*
X67923604Y-178917590D01*
X68040521Y-178635326D01*
X68210259Y-178381295D01*
X68426295Y-178165259D01*
X68680326Y-177995521D01*
X68962590Y-177878604D01*
X69262240Y-177819000D01*
X69567760Y-177819000D01*
X69867410Y-177878604D01*
X69867410Y-177878604D01*
G37*
G36*
X61701000Y-177276000D02*
G01*
X60836255Y-177276000D01*
X60797237Y-177279843D01*
X60759719Y-177291224D01*
X60725142Y-177309706D01*
X60694834Y-177334578D01*
X60669962Y-177364886D01*
X60651480Y-177399463D01*
X60640099Y-177436981D01*
X60636256Y-177475999D01*
X60640099Y-177515017D01*
X60651480Y-177552535D01*
X60669962Y-177587112D01*
X60694834Y-177617420D01*
X60725142Y-177642292D01*
X60759716Y-177660772D01*
X61024674Y-177770521D01*
X61278705Y-177940259D01*
X61494741Y-178156295D01*
X61664479Y-178410326D01*
X61781396Y-178692590D01*
X61841000Y-178992240D01*
X61841000Y-179297760D01*
X61781396Y-179597410D01*
X61664479Y-179879674D01*
X61494741Y-180133705D01*
X61278705Y-180349741D01*
X61024674Y-180519479D01*
X60742410Y-180636396D01*
X60442760Y-180696000D01*
X60137240Y-180696000D01*
X59837590Y-180636396D01*
X59555326Y-180519479D01*
X59301295Y-180349741D01*
X59085259Y-180133705D01*
X59067287Y-180106808D01*
X59042420Y-180076507D01*
X59012113Y-180051634D01*
X58977536Y-180033152D01*
X58940017Y-180021771D01*
X58900999Y-180017928D01*
X58861981Y-180021771D01*
X58851084Y-180025077D01*
X58858322Y-180017839D01*
X58880104Y-179985239D01*
X58895107Y-179949017D01*
X58902756Y-179910564D01*
X58902756Y-179871357D01*
X58888496Y-179814430D01*
X58798604Y-179597410D01*
X58739000Y-179297760D01*
X58739000Y-178992240D01*
X58798604Y-178692590D01*
X58915521Y-178410326D01*
X59085259Y-178156295D01*
X59301295Y-177940259D01*
X59555326Y-177770521D01*
X59820284Y-177660772D01*
X59854858Y-177642292D01*
X59885166Y-177617420D01*
X59910038Y-177587113D01*
X59928520Y-177552535D01*
X59939901Y-177515017D01*
X59943744Y-177475999D01*
X59939901Y-177436981D01*
X59928520Y-177399463D01*
X59910038Y-177364886D01*
X59885166Y-177334578D01*
X59854859Y-177309706D01*
X59820281Y-177291224D01*
X59782763Y-177279843D01*
X59743745Y-177276000D01*
X59299000Y-177276000D01*
X59299000Y-174674000D01*
X61701000Y-174674000D01*
X61701000Y-177276000D01*
X61701000Y-177276000D01*
G37*
G36*
X54392410Y-177653604D02*
G01*
X54674674Y-177770521D01*
X54928705Y-177940259D01*
X55144741Y-178156295D01*
X55314479Y-178410326D01*
X55431396Y-178692590D01*
X55491000Y-178992240D01*
X55491000Y-179297760D01*
X55431396Y-179597410D01*
X55314479Y-179879674D01*
X55144741Y-180133705D01*
X54928705Y-180349741D01*
X54674674Y-180519479D01*
X54392410Y-180636396D01*
X54092760Y-180696000D01*
X53787240Y-180696000D01*
X53487590Y-180636396D01*
X53205326Y-180519479D01*
X52951295Y-180349741D01*
X52735259Y-180133705D01*
X52565521Y-179879674D01*
X52448604Y-179597410D01*
X52389000Y-179297760D01*
X52389000Y-178992240D01*
X52448604Y-178692590D01*
X52565521Y-178410326D01*
X52735259Y-178156295D01*
X52951295Y-177940259D01*
X53205326Y-177770521D01*
X53487590Y-177653604D01*
X53787240Y-177594000D01*
X54092760Y-177594000D01*
X54392410Y-177653604D01*
X54392410Y-177653604D01*
G37*
G36*
X30557111Y-179020081D02*
G01*
X30587507Y-179029302D01*
X30615522Y-179044276D01*
X30640074Y-179064426D01*
X30660224Y-179088978D01*
X30675198Y-179116993D01*
X30684419Y-179147389D01*
X30688500Y-179188826D01*
X30688500Y-179995174D01*
X30684419Y-180036611D01*
X30675198Y-180067007D01*
X30660224Y-180095022D01*
X30640074Y-180119574D01*
X30615522Y-180139724D01*
X30587507Y-180154698D01*
X30557111Y-180163919D01*
X30515674Y-180168000D01*
X29809326Y-180168000D01*
X29767889Y-180163919D01*
X29737493Y-180154698D01*
X29709478Y-180139724D01*
X29684926Y-180119574D01*
X29664776Y-180095022D01*
X29649802Y-180067007D01*
X29640581Y-180036611D01*
X29636500Y-179995174D01*
X29636500Y-179188826D01*
X29640581Y-179147389D01*
X29649802Y-179116993D01*
X29664776Y-179088978D01*
X29684926Y-179064426D01*
X29709478Y-179044276D01*
X29737493Y-179029302D01*
X29767889Y-179020081D01*
X29809326Y-179016000D01*
X30515674Y-179016000D01*
X30557111Y-179020081D01*
X30557111Y-179020081D01*
G37*
G36*
X41438040Y-177981400D02*
G01*
X41452024Y-177985642D01*
X41464906Y-177992528D01*
X41476202Y-178001798D01*
X41485472Y-178013094D01*
X41492358Y-178025976D01*
X41496600Y-178039960D01*
X41499000Y-178064328D01*
X41499000Y-179945672D01*
X41496600Y-179970040D01*
X41492358Y-179984024D01*
X41485472Y-179996906D01*
X41476202Y-180008202D01*
X41464906Y-180017472D01*
X41452024Y-180024358D01*
X41438040Y-180028600D01*
X41413672Y-180031000D01*
X40882328Y-180031000D01*
X40857960Y-180028600D01*
X40843976Y-180024358D01*
X40831094Y-180017472D01*
X40819798Y-180008202D01*
X40810528Y-179996906D01*
X40803642Y-179984024D01*
X40799400Y-179970040D01*
X40797000Y-179945672D01*
X40797000Y-178064328D01*
X40799400Y-178039960D01*
X40803642Y-178025976D01*
X40810528Y-178013094D01*
X40819798Y-178001798D01*
X40831094Y-177992528D01*
X40843976Y-177985642D01*
X40857960Y-177981400D01*
X40882328Y-177979000D01*
X41413672Y-177979000D01*
X41438040Y-177981400D01*
X41438040Y-177981400D01*
G37*
G36*
X37628040Y-177981400D02*
G01*
X37642024Y-177985642D01*
X37654906Y-177992528D01*
X37666202Y-178001798D01*
X37675472Y-178013094D01*
X37682358Y-178025976D01*
X37686600Y-178039960D01*
X37689000Y-178064328D01*
X37689000Y-179945672D01*
X37686600Y-179970040D01*
X37682358Y-179984024D01*
X37675472Y-179996906D01*
X37666202Y-180008202D01*
X37654906Y-180017472D01*
X37642024Y-180024358D01*
X37628040Y-180028600D01*
X37603672Y-180031000D01*
X37072328Y-180031000D01*
X37047960Y-180028600D01*
X37033976Y-180024358D01*
X37021094Y-180017472D01*
X37009798Y-180008202D01*
X37000528Y-179996906D01*
X36993642Y-179984024D01*
X36989400Y-179970040D01*
X36987000Y-179945672D01*
X36987000Y-178064328D01*
X36989400Y-178039960D01*
X36993642Y-178025976D01*
X37000528Y-178013094D01*
X37009798Y-178001798D01*
X37021094Y-177992528D01*
X37033976Y-177985642D01*
X37047960Y-177981400D01*
X37072328Y-177979000D01*
X37603672Y-177979000D01*
X37628040Y-177981400D01*
X37628040Y-177981400D01*
G37*
G36*
X38898040Y-177981400D02*
G01*
X38912024Y-177985642D01*
X38924906Y-177992528D01*
X38936202Y-178001798D01*
X38945472Y-178013094D01*
X38952358Y-178025976D01*
X38956600Y-178039960D01*
X38959000Y-178064328D01*
X38959000Y-179945672D01*
X38956600Y-179970040D01*
X38952358Y-179984024D01*
X38945472Y-179996906D01*
X38936202Y-180008202D01*
X38924906Y-180017472D01*
X38912024Y-180024358D01*
X38898040Y-180028600D01*
X38873672Y-180031000D01*
X38342328Y-180031000D01*
X38317960Y-180028600D01*
X38303976Y-180024358D01*
X38291094Y-180017472D01*
X38279798Y-180008202D01*
X38270528Y-179996906D01*
X38263642Y-179984024D01*
X38259400Y-179970040D01*
X38257000Y-179945672D01*
X38257000Y-178064328D01*
X38259400Y-178039960D01*
X38263642Y-178025976D01*
X38270528Y-178013094D01*
X38279798Y-178001798D01*
X38291094Y-177992528D01*
X38303976Y-177985642D01*
X38317960Y-177981400D01*
X38342328Y-177979000D01*
X38873672Y-177979000D01*
X38898040Y-177981400D01*
X38898040Y-177981400D01*
G37*
G36*
X40168040Y-177981400D02*
G01*
X40182024Y-177985642D01*
X40194906Y-177992528D01*
X40206202Y-178001798D01*
X40215472Y-178013094D01*
X40222358Y-178025976D01*
X40226600Y-178039960D01*
X40229000Y-178064328D01*
X40229000Y-179945672D01*
X40226600Y-179970040D01*
X40222358Y-179984024D01*
X40215472Y-179996906D01*
X40206202Y-180008202D01*
X40194906Y-180017472D01*
X40182024Y-180024358D01*
X40168040Y-180028600D01*
X40143672Y-180031000D01*
X39612328Y-180031000D01*
X39587960Y-180028600D01*
X39573976Y-180024358D01*
X39561094Y-180017472D01*
X39549798Y-180008202D01*
X39540528Y-179996906D01*
X39533642Y-179984024D01*
X39529400Y-179970040D01*
X39527000Y-179945672D01*
X39527000Y-178064328D01*
X39529400Y-178039960D01*
X39533642Y-178025976D01*
X39540528Y-178013094D01*
X39549798Y-178001798D01*
X39561094Y-177992528D01*
X39573976Y-177985642D01*
X39587960Y-177981400D01*
X39612328Y-177979000D01*
X40143672Y-177979000D01*
X40168040Y-177981400D01*
X40168040Y-177981400D01*
G37*
G36*
X42708040Y-177981400D02*
G01*
X42722024Y-177985642D01*
X42734906Y-177992528D01*
X42746202Y-178001798D01*
X42755472Y-178013094D01*
X42762358Y-178025976D01*
X42766600Y-178039960D01*
X42769000Y-178064328D01*
X42769000Y-179945672D01*
X42766600Y-179970040D01*
X42762358Y-179984024D01*
X42755472Y-179996906D01*
X42746202Y-180008202D01*
X42734906Y-180017472D01*
X42722024Y-180024358D01*
X42708040Y-180028600D01*
X42683672Y-180031000D01*
X42152328Y-180031000D01*
X42127960Y-180028600D01*
X42113976Y-180024358D01*
X42101094Y-180017472D01*
X42089798Y-180008202D01*
X42080528Y-179996906D01*
X42073642Y-179984024D01*
X42069400Y-179970040D01*
X42067000Y-179945672D01*
X42067000Y-178064328D01*
X42069400Y-178039960D01*
X42073642Y-178025976D01*
X42080528Y-178013094D01*
X42089798Y-178001798D01*
X42101094Y-177992528D01*
X42113976Y-177985642D01*
X42127960Y-177981400D01*
X42152328Y-177979000D01*
X42683672Y-177979000D01*
X42708040Y-177981400D01*
X42708040Y-177981400D01*
G37*
G36*
X43978040Y-177981400D02*
G01*
X43992024Y-177985642D01*
X44004906Y-177992528D01*
X44016202Y-178001798D01*
X44025472Y-178013094D01*
X44032358Y-178025976D01*
X44036600Y-178039960D01*
X44039000Y-178064328D01*
X44039000Y-179945672D01*
X44036600Y-179970040D01*
X44032358Y-179984024D01*
X44025472Y-179996906D01*
X44016202Y-180008202D01*
X44004906Y-180017472D01*
X43992024Y-180024358D01*
X43978040Y-180028600D01*
X43953672Y-180031000D01*
X43422328Y-180031000D01*
X43397960Y-180028600D01*
X43383976Y-180024358D01*
X43371094Y-180017472D01*
X43359798Y-180008202D01*
X43350528Y-179996906D01*
X43343642Y-179984024D01*
X43339400Y-179970040D01*
X43337000Y-179945672D01*
X43337000Y-178064328D01*
X43339400Y-178039960D01*
X43343642Y-178025976D01*
X43350528Y-178013094D01*
X43359798Y-178001798D01*
X43371094Y-177992528D01*
X43383976Y-177985642D01*
X43397960Y-177981400D01*
X43422328Y-177979000D01*
X43953672Y-177979000D01*
X43978040Y-177981400D01*
X43978040Y-177981400D01*
G37*
G36*
X45248040Y-177981400D02*
G01*
X45262024Y-177985642D01*
X45274906Y-177992528D01*
X45286202Y-178001798D01*
X45295472Y-178013094D01*
X45302358Y-178025976D01*
X45306600Y-178039960D01*
X45309000Y-178064328D01*
X45309000Y-179945672D01*
X45306600Y-179970040D01*
X45302358Y-179984024D01*
X45295472Y-179996906D01*
X45286202Y-180008202D01*
X45274906Y-180017472D01*
X45262024Y-180024358D01*
X45248040Y-180028600D01*
X45223672Y-180031000D01*
X44692328Y-180031000D01*
X44667960Y-180028600D01*
X44653976Y-180024358D01*
X44641094Y-180017472D01*
X44629798Y-180008202D01*
X44620528Y-179996906D01*
X44613642Y-179984024D01*
X44609400Y-179970040D01*
X44607000Y-179945672D01*
X44607000Y-178064328D01*
X44609400Y-178039960D01*
X44613642Y-178025976D01*
X44620528Y-178013094D01*
X44629798Y-178001798D01*
X44641094Y-177992528D01*
X44653976Y-177985642D01*
X44667960Y-177981400D01*
X44692328Y-177979000D01*
X45223672Y-177979000D01*
X45248040Y-177981400D01*
X45248040Y-177981400D01*
G37*
G36*
X26760951Y-178910731D02*
G01*
X26843027Y-178944728D01*
X26843029Y-178944729D01*
X26880213Y-178969575D01*
X26916895Y-178994085D01*
X26979715Y-179056905D01*
X27029072Y-179130773D01*
X27063069Y-179212849D01*
X27080400Y-179299979D01*
X27080400Y-179388821D01*
X27063069Y-179475951D01*
X27043680Y-179522760D01*
X27029071Y-179558029D01*
X26979714Y-179631896D01*
X26916896Y-179694714D01*
X26843029Y-179744071D01*
X26843028Y-179744072D01*
X26843027Y-179744072D01*
X26760951Y-179778069D01*
X26673821Y-179795400D01*
X26584979Y-179795400D01*
X26497849Y-179778069D01*
X26415773Y-179744072D01*
X26415772Y-179744072D01*
X26415771Y-179744071D01*
X26341904Y-179694714D01*
X26279086Y-179631896D01*
X26229729Y-179558029D01*
X26215120Y-179522760D01*
X26195731Y-179475951D01*
X26178400Y-179388821D01*
X26178400Y-179299979D01*
X26195731Y-179212849D01*
X26229728Y-179130773D01*
X26279085Y-179056905D01*
X26341905Y-178994085D01*
X26378587Y-178969575D01*
X26415771Y-178944729D01*
X26415773Y-178944728D01*
X26497849Y-178910731D01*
X26584979Y-178893400D01*
X26673821Y-178893400D01*
X26760951Y-178910731D01*
X26760951Y-178910731D01*
G37*
G36*
X35954611Y-176452081D02*
G01*
X35985007Y-176461302D01*
X36013022Y-176476276D01*
X36037574Y-176496426D01*
X36057724Y-176520978D01*
X36072698Y-176548993D01*
X36081919Y-176579389D01*
X36086000Y-176620826D01*
X36086000Y-177427174D01*
X36081919Y-177468611D01*
X36072698Y-177499007D01*
X36057724Y-177527022D01*
X36037574Y-177551574D01*
X36013022Y-177571724D01*
X35985007Y-177586698D01*
X35954611Y-177595919D01*
X35913174Y-177600000D01*
X35206826Y-177600000D01*
X35165389Y-177595919D01*
X35134993Y-177586698D01*
X35106978Y-177571724D01*
X35082426Y-177551574D01*
X35062276Y-177527022D01*
X35047302Y-177499007D01*
X35038081Y-177468611D01*
X35034000Y-177427174D01*
X35034000Y-176620826D01*
X35038081Y-176579389D01*
X35047302Y-176548993D01*
X35062276Y-176520978D01*
X35082426Y-176496426D01*
X35106978Y-176476276D01*
X35134993Y-176461302D01*
X35165389Y-176452081D01*
X35206826Y-176448000D01*
X35913174Y-176448000D01*
X35954611Y-176452081D01*
X35954611Y-176452081D01*
G37*
G36*
X34354411Y-176452081D02*
G01*
X34384807Y-176461302D01*
X34412822Y-176476276D01*
X34437374Y-176496426D01*
X34457524Y-176520978D01*
X34472498Y-176548993D01*
X34481719Y-176579389D01*
X34485800Y-176620826D01*
X34485800Y-177427174D01*
X34481719Y-177468611D01*
X34472498Y-177499007D01*
X34457524Y-177527022D01*
X34437374Y-177551574D01*
X34412822Y-177571724D01*
X34384807Y-177586698D01*
X34354411Y-177595919D01*
X34312974Y-177600000D01*
X33606626Y-177600000D01*
X33565189Y-177595919D01*
X33534793Y-177586698D01*
X33506778Y-177571724D01*
X33482226Y-177551574D01*
X33462076Y-177527022D01*
X33447102Y-177499007D01*
X33437881Y-177468611D01*
X33433800Y-177427174D01*
X33433800Y-176620826D01*
X33437881Y-176579389D01*
X33447102Y-176548993D01*
X33462076Y-176520978D01*
X33482226Y-176496426D01*
X33506778Y-176476276D01*
X33534793Y-176461302D01*
X33565189Y-176452081D01*
X33606626Y-176448000D01*
X34312974Y-176448000D01*
X34354411Y-176452081D01*
X34354411Y-176452081D01*
G37*
G36*
X56251000Y-176976000D02*
G01*
X55249000Y-176976000D01*
X55249000Y-176074000D01*
X56251000Y-176074000D01*
X56251000Y-176976000D01*
X56251000Y-176976000D01*
G37*
G36*
X71976000Y-176951000D02*
G01*
X70974000Y-176951000D01*
X70974000Y-176049000D01*
X71976000Y-176049000D01*
X71976000Y-176951000D01*
X71976000Y-176951000D01*
G37*
G36*
X54251000Y-176026000D02*
G01*
X53249000Y-176026000D01*
X53249000Y-175124000D01*
X54251000Y-175124000D01*
X54251000Y-176026000D01*
X54251000Y-176026000D01*
G37*
G36*
X69976000Y-176001000D02*
G01*
X68974000Y-176001000D01*
X68974000Y-175099000D01*
X69976000Y-175099000D01*
X69976000Y-176001000D01*
X69976000Y-176001000D01*
G37*
G36*
X26760951Y-175110731D02*
G01*
X26843027Y-175144728D01*
X26843029Y-175144729D01*
X26880213Y-175169575D01*
X26916895Y-175194085D01*
X26979715Y-175256905D01*
X27029072Y-175330773D01*
X27063069Y-175412849D01*
X27080400Y-175499979D01*
X27080400Y-175588821D01*
X27063069Y-175675951D01*
X27029072Y-175758027D01*
X26980995Y-175829980D01*
X26979714Y-175831896D01*
X26916896Y-175894714D01*
X26843029Y-175944071D01*
X26843028Y-175944072D01*
X26843027Y-175944072D01*
X26760951Y-175978069D01*
X26673821Y-175995400D01*
X26584979Y-175995400D01*
X26497849Y-175978069D01*
X26415773Y-175944072D01*
X26415772Y-175944072D01*
X26415771Y-175944071D01*
X26341904Y-175894714D01*
X26279086Y-175831896D01*
X26277806Y-175829980D01*
X26229728Y-175758027D01*
X26195731Y-175675951D01*
X26178400Y-175588821D01*
X26178400Y-175499979D01*
X26195731Y-175412849D01*
X26229728Y-175330773D01*
X26279085Y-175256905D01*
X26341905Y-175194085D01*
X26378587Y-175169575D01*
X26415771Y-175144729D01*
X26415773Y-175144728D01*
X26497849Y-175110731D01*
X26584979Y-175093400D01*
X26673821Y-175093400D01*
X26760951Y-175110731D01*
X26760951Y-175110731D01*
G37*
G36*
X35954611Y-174702081D02*
G01*
X35985007Y-174711302D01*
X36013022Y-174726276D01*
X36037574Y-174746426D01*
X36057724Y-174770978D01*
X36072698Y-174798993D01*
X36081919Y-174829389D01*
X36086000Y-174870826D01*
X36086000Y-175677174D01*
X36081919Y-175718611D01*
X36072698Y-175749007D01*
X36057724Y-175777022D01*
X36037574Y-175801574D01*
X36013022Y-175821724D01*
X35985007Y-175836698D01*
X35954611Y-175845919D01*
X35913174Y-175850000D01*
X35206826Y-175850000D01*
X35165389Y-175845919D01*
X35134993Y-175836698D01*
X35106978Y-175821724D01*
X35082426Y-175801574D01*
X35062276Y-175777022D01*
X35047302Y-175749007D01*
X35038081Y-175718611D01*
X35034000Y-175677174D01*
X35034000Y-174870826D01*
X35038081Y-174829389D01*
X35047302Y-174798993D01*
X35062276Y-174770978D01*
X35082426Y-174746426D01*
X35106978Y-174726276D01*
X35134993Y-174711302D01*
X35165389Y-174702081D01*
X35206826Y-174698000D01*
X35913174Y-174698000D01*
X35954611Y-174702081D01*
X35954611Y-174702081D01*
G37*
G36*
X34354411Y-174702081D02*
G01*
X34384807Y-174711302D01*
X34412822Y-174726276D01*
X34437374Y-174746426D01*
X34457524Y-174770978D01*
X34472498Y-174798993D01*
X34481719Y-174829389D01*
X34485800Y-174870826D01*
X34485800Y-175677174D01*
X34481719Y-175718611D01*
X34472498Y-175749007D01*
X34457524Y-175777022D01*
X34437374Y-175801574D01*
X34412822Y-175821724D01*
X34384807Y-175836698D01*
X34354411Y-175845919D01*
X34312974Y-175850000D01*
X33606626Y-175850000D01*
X33565189Y-175845919D01*
X33534793Y-175836698D01*
X33506778Y-175821724D01*
X33482226Y-175801574D01*
X33462076Y-175777022D01*
X33447102Y-175749007D01*
X33437881Y-175718611D01*
X33433800Y-175677174D01*
X33433800Y-174870826D01*
X33437881Y-174829389D01*
X33447102Y-174798993D01*
X33462076Y-174770978D01*
X33482226Y-174746426D01*
X33506778Y-174726276D01*
X33534793Y-174711302D01*
X33565189Y-174702081D01*
X33606626Y-174698000D01*
X34312974Y-174698000D01*
X34354411Y-174702081D01*
X34354411Y-174702081D01*
G37*
G36*
X42708040Y-173031400D02*
G01*
X42722024Y-173035642D01*
X42734906Y-173042528D01*
X42746202Y-173051798D01*
X42755472Y-173063094D01*
X42762358Y-173075976D01*
X42766600Y-173089960D01*
X42769000Y-173114328D01*
X42769000Y-174995672D01*
X42766600Y-175020040D01*
X42762358Y-175034024D01*
X42755472Y-175046906D01*
X42746202Y-175058202D01*
X42734906Y-175067472D01*
X42722024Y-175074358D01*
X42708040Y-175078600D01*
X42683672Y-175081000D01*
X42152328Y-175081000D01*
X42127960Y-175078600D01*
X42113976Y-175074358D01*
X42101094Y-175067472D01*
X42089798Y-175058202D01*
X42080528Y-175046906D01*
X42073642Y-175034024D01*
X42069400Y-175020040D01*
X42067000Y-174995672D01*
X42067000Y-173114328D01*
X42069400Y-173089960D01*
X42073642Y-173075976D01*
X42080528Y-173063094D01*
X42089798Y-173051798D01*
X42101094Y-173042528D01*
X42113976Y-173035642D01*
X42127960Y-173031400D01*
X42152328Y-173029000D01*
X42683672Y-173029000D01*
X42708040Y-173031400D01*
X42708040Y-173031400D01*
G37*
G36*
X41438040Y-173031400D02*
G01*
X41452024Y-173035642D01*
X41464906Y-173042528D01*
X41476202Y-173051798D01*
X41485472Y-173063094D01*
X41492358Y-173075976D01*
X41496600Y-173089960D01*
X41499000Y-173114328D01*
X41499000Y-174995672D01*
X41496600Y-175020040D01*
X41492358Y-175034024D01*
X41485472Y-175046906D01*
X41476202Y-175058202D01*
X41464906Y-175067472D01*
X41452024Y-175074358D01*
X41438040Y-175078600D01*
X41413672Y-175081000D01*
X40882328Y-175081000D01*
X40857960Y-175078600D01*
X40843976Y-175074358D01*
X40831094Y-175067472D01*
X40819798Y-175058202D01*
X40810528Y-175046906D01*
X40803642Y-175034024D01*
X40799400Y-175020040D01*
X40797000Y-174995672D01*
X40797000Y-173114328D01*
X40799400Y-173089960D01*
X40803642Y-173075976D01*
X40810528Y-173063094D01*
X40819798Y-173051798D01*
X40831094Y-173042528D01*
X40843976Y-173035642D01*
X40857960Y-173031400D01*
X40882328Y-173029000D01*
X41413672Y-173029000D01*
X41438040Y-173031400D01*
X41438040Y-173031400D01*
G37*
G36*
X40168040Y-173031400D02*
G01*
X40182024Y-173035642D01*
X40194906Y-173042528D01*
X40206202Y-173051798D01*
X40215472Y-173063094D01*
X40222358Y-173075976D01*
X40226600Y-173089960D01*
X40229000Y-173114328D01*
X40229000Y-174995672D01*
X40226600Y-175020040D01*
X40222358Y-175034024D01*
X40215472Y-175046906D01*
X40206202Y-175058202D01*
X40194906Y-175067472D01*
X40182024Y-175074358D01*
X40168040Y-175078600D01*
X40143672Y-175081000D01*
X39612328Y-175081000D01*
X39587960Y-175078600D01*
X39573976Y-175074358D01*
X39561094Y-175067472D01*
X39549798Y-175058202D01*
X39540528Y-175046906D01*
X39533642Y-175034024D01*
X39529400Y-175020040D01*
X39527000Y-174995672D01*
X39527000Y-173114328D01*
X39529400Y-173089960D01*
X39533642Y-173075976D01*
X39540528Y-173063094D01*
X39549798Y-173051798D01*
X39561094Y-173042528D01*
X39573976Y-173035642D01*
X39587960Y-173031400D01*
X39612328Y-173029000D01*
X40143672Y-173029000D01*
X40168040Y-173031400D01*
X40168040Y-173031400D01*
G37*
G36*
X43978040Y-173031400D02*
G01*
X43992024Y-173035642D01*
X44004906Y-173042528D01*
X44016202Y-173051798D01*
X44025472Y-173063094D01*
X44032358Y-173075976D01*
X44036600Y-173089960D01*
X44039000Y-173114328D01*
X44039000Y-174995672D01*
X44036600Y-175020040D01*
X44032358Y-175034024D01*
X44025472Y-175046906D01*
X44016202Y-175058202D01*
X44004906Y-175067472D01*
X43992024Y-175074358D01*
X43978040Y-175078600D01*
X43953672Y-175081000D01*
X43422328Y-175081000D01*
X43397960Y-175078600D01*
X43383976Y-175074358D01*
X43371094Y-175067472D01*
X43359798Y-175058202D01*
X43350528Y-175046906D01*
X43343642Y-175034024D01*
X43339400Y-175020040D01*
X43337000Y-174995672D01*
X43337000Y-173114328D01*
X43339400Y-173089960D01*
X43343642Y-173075976D01*
X43350528Y-173063094D01*
X43359798Y-173051798D01*
X43371094Y-173042528D01*
X43383976Y-173035642D01*
X43397960Y-173031400D01*
X43422328Y-173029000D01*
X43953672Y-173029000D01*
X43978040Y-173031400D01*
X43978040Y-173031400D01*
G37*
G36*
X38898040Y-173031400D02*
G01*
X38912024Y-173035642D01*
X38924906Y-173042528D01*
X38936202Y-173051798D01*
X38945472Y-173063094D01*
X38952358Y-173075976D01*
X38956600Y-173089960D01*
X38959000Y-173114328D01*
X38959000Y-174995672D01*
X38956600Y-175020040D01*
X38952358Y-175034024D01*
X38945472Y-175046906D01*
X38936202Y-175058202D01*
X38924906Y-175067472D01*
X38912024Y-175074358D01*
X38898040Y-175078600D01*
X38873672Y-175081000D01*
X38342328Y-175081000D01*
X38317960Y-175078600D01*
X38303976Y-175074358D01*
X38291094Y-175067472D01*
X38279798Y-175058202D01*
X38270528Y-175046906D01*
X38263642Y-175034024D01*
X38259400Y-175020040D01*
X38257000Y-174995672D01*
X38257000Y-173114328D01*
X38259400Y-173089960D01*
X38263642Y-173075976D01*
X38270528Y-173063094D01*
X38279798Y-173051798D01*
X38291094Y-173042528D01*
X38303976Y-173035642D01*
X38317960Y-173031400D01*
X38342328Y-173029000D01*
X38873672Y-173029000D01*
X38898040Y-173031400D01*
X38898040Y-173031400D01*
G37*
G36*
X45248040Y-173031400D02*
G01*
X45262024Y-173035642D01*
X45274906Y-173042528D01*
X45286202Y-173051798D01*
X45295472Y-173063094D01*
X45302358Y-173075976D01*
X45306600Y-173089960D01*
X45309000Y-173114328D01*
X45309000Y-174995672D01*
X45306600Y-175020040D01*
X45302358Y-175034024D01*
X45295472Y-175046906D01*
X45286202Y-175058202D01*
X45274906Y-175067472D01*
X45262024Y-175074358D01*
X45248040Y-175078600D01*
X45223672Y-175081000D01*
X44692328Y-175081000D01*
X44667960Y-175078600D01*
X44653976Y-175074358D01*
X44641094Y-175067472D01*
X44629798Y-175058202D01*
X44620528Y-175046906D01*
X44613642Y-175034024D01*
X44609400Y-175020040D01*
X44607000Y-174995672D01*
X44607000Y-173114328D01*
X44609400Y-173089960D01*
X44613642Y-173075976D01*
X44620528Y-173063094D01*
X44629798Y-173051798D01*
X44641094Y-173042528D01*
X44653976Y-173035642D01*
X44667960Y-173031400D01*
X44692328Y-173029000D01*
X45223672Y-173029000D01*
X45248040Y-173031400D01*
X45248040Y-173031400D01*
G37*
G36*
X37628040Y-173031400D02*
G01*
X37642024Y-173035642D01*
X37654906Y-173042528D01*
X37666202Y-173051798D01*
X37675472Y-173063094D01*
X37682358Y-173075976D01*
X37686600Y-173089960D01*
X37689000Y-173114328D01*
X37689000Y-174995672D01*
X37686600Y-175020040D01*
X37682358Y-175034024D01*
X37675472Y-175046906D01*
X37666202Y-175058202D01*
X37654906Y-175067472D01*
X37642024Y-175074358D01*
X37628040Y-175078600D01*
X37603672Y-175081000D01*
X37072328Y-175081000D01*
X37047960Y-175078600D01*
X37033976Y-175074358D01*
X37021094Y-175067472D01*
X37009798Y-175058202D01*
X37000528Y-175046906D01*
X36993642Y-175034024D01*
X36989400Y-175020040D01*
X36987000Y-174995672D01*
X36987000Y-173114328D01*
X36989400Y-173089960D01*
X36993642Y-173075976D01*
X37000528Y-173063094D01*
X37009798Y-173051798D01*
X37021094Y-173042528D01*
X37033976Y-173035642D01*
X37047960Y-173031400D01*
X37072328Y-173029000D01*
X37603672Y-173029000D01*
X37628040Y-173031400D01*
X37628040Y-173031400D01*
G37*
G36*
X56251000Y-175076000D02*
G01*
X55249000Y-175076000D01*
X55249000Y-174174000D01*
X56251000Y-174174000D01*
X56251000Y-175076000D01*
X56251000Y-175076000D01*
G37*
G36*
X71976000Y-175051000D02*
G01*
X70974000Y-175051000D01*
X70974000Y-174149000D01*
X71976000Y-174149000D01*
X71976000Y-175051000D01*
X71976000Y-175051000D01*
G37*
G36*
X77176000Y-173201000D02*
G01*
X74774000Y-173201000D01*
X74774000Y-170599000D01*
X77176000Y-170599000D01*
X77176000Y-173201000D01*
X77176000Y-173201000D01*
G37*
G36*
X61701000Y-172976000D02*
G01*
X59299000Y-172976000D01*
X59299000Y-170374000D01*
X61701000Y-170374000D01*
X61701000Y-172976000D01*
X61701000Y-172976000D01*
G37*
G36*
X46214111Y-171182081D02*
G01*
X46244507Y-171191302D01*
X46272522Y-171206276D01*
X46297074Y-171226426D01*
X46317224Y-171250978D01*
X46332198Y-171278993D01*
X46341419Y-171309389D01*
X46345500Y-171350826D01*
X46345500Y-172057174D01*
X46341419Y-172098611D01*
X46332198Y-172129007D01*
X46317224Y-172157022D01*
X46297074Y-172181574D01*
X46272522Y-172201724D01*
X46244507Y-172216698D01*
X46214111Y-172225919D01*
X46172674Y-172230000D01*
X45366326Y-172230000D01*
X45324889Y-172225919D01*
X45294493Y-172216698D01*
X45266478Y-172201724D01*
X45241926Y-172181574D01*
X45221776Y-172157022D01*
X45206802Y-172129007D01*
X45197581Y-172098611D01*
X45193500Y-172057174D01*
X45193500Y-171350826D01*
X45197581Y-171309389D01*
X45206802Y-171278993D01*
X45221776Y-171250978D01*
X45241926Y-171226426D01*
X45266478Y-171206276D01*
X45294493Y-171191302D01*
X45324889Y-171182081D01*
X45366326Y-171178000D01*
X46172674Y-171178000D01*
X46214111Y-171182081D01*
X46214111Y-171182081D01*
G37*
G36*
X44464111Y-171182081D02*
G01*
X44494507Y-171191302D01*
X44522522Y-171206276D01*
X44547074Y-171226426D01*
X44567224Y-171250978D01*
X44582198Y-171278993D01*
X44591419Y-171309389D01*
X44595500Y-171350826D01*
X44595500Y-172057174D01*
X44591419Y-172098611D01*
X44582198Y-172129007D01*
X44567224Y-172157022D01*
X44547074Y-172181574D01*
X44522522Y-172201724D01*
X44494507Y-172216698D01*
X44464111Y-172225919D01*
X44422674Y-172230000D01*
X43616326Y-172230000D01*
X43574889Y-172225919D01*
X43544493Y-172216698D01*
X43516478Y-172201724D01*
X43491926Y-172181574D01*
X43471776Y-172157022D01*
X43456802Y-172129007D01*
X43447581Y-172098611D01*
X43443500Y-172057174D01*
X43443500Y-171350826D01*
X43447581Y-171309389D01*
X43456802Y-171278993D01*
X43471776Y-171250978D01*
X43491926Y-171226426D01*
X43516478Y-171206276D01*
X43544493Y-171191302D01*
X43574889Y-171182081D01*
X43616326Y-171178000D01*
X44422674Y-171178000D01*
X44464111Y-171182081D01*
X44464111Y-171182081D01*
G37*
G36*
X40971111Y-170864081D02*
G01*
X41001507Y-170873302D01*
X41029522Y-170888276D01*
X41054074Y-170908426D01*
X41074224Y-170932978D01*
X41089198Y-170960993D01*
X41098419Y-170991389D01*
X41102500Y-171032826D01*
X41102500Y-171839174D01*
X41098419Y-171880611D01*
X41089198Y-171911007D01*
X41074224Y-171939022D01*
X41054074Y-171963574D01*
X41029522Y-171983724D01*
X41001507Y-171998698D01*
X40971111Y-172007919D01*
X40929674Y-172012000D01*
X40223326Y-172012000D01*
X40181889Y-172007919D01*
X40151493Y-171998698D01*
X40123478Y-171983724D01*
X40098926Y-171963574D01*
X40078776Y-171939022D01*
X40063802Y-171911007D01*
X40054581Y-171880611D01*
X40050500Y-171839174D01*
X40050500Y-171032826D01*
X40054581Y-170991389D01*
X40063802Y-170960993D01*
X40078776Y-170932978D01*
X40098926Y-170908426D01*
X40123478Y-170888276D01*
X40151493Y-170873302D01*
X40181889Y-170864081D01*
X40223326Y-170860000D01*
X40929674Y-170860000D01*
X40971111Y-170864081D01*
X40971111Y-170864081D01*
G37*
G36*
X39066111Y-170864081D02*
G01*
X39096507Y-170873302D01*
X39124522Y-170888276D01*
X39149074Y-170908426D01*
X39169224Y-170932978D01*
X39184198Y-170960993D01*
X39193419Y-170991389D01*
X39197500Y-171032826D01*
X39197500Y-171839174D01*
X39193419Y-171880611D01*
X39184198Y-171911007D01*
X39169224Y-171939022D01*
X39149074Y-171963574D01*
X39124522Y-171983724D01*
X39096507Y-171998698D01*
X39066111Y-172007919D01*
X39024674Y-172012000D01*
X38318326Y-172012000D01*
X38276889Y-172007919D01*
X38246493Y-171998698D01*
X38218478Y-171983724D01*
X38193926Y-171963574D01*
X38173776Y-171939022D01*
X38158802Y-171911007D01*
X38149581Y-171880611D01*
X38145500Y-171839174D01*
X38145500Y-171032826D01*
X38149581Y-170991389D01*
X38158802Y-170960993D01*
X38173776Y-170932978D01*
X38193926Y-170908426D01*
X38218478Y-170888276D01*
X38246493Y-170873302D01*
X38276889Y-170864081D01*
X38318326Y-170860000D01*
X39024674Y-170860000D01*
X39066111Y-170864081D01*
X39066111Y-170864081D01*
G37*
G36*
X40971111Y-169114081D02*
G01*
X41001507Y-169123302D01*
X41029522Y-169138276D01*
X41054074Y-169158426D01*
X41074224Y-169182978D01*
X41089198Y-169210993D01*
X41098419Y-169241389D01*
X41102500Y-169282826D01*
X41102500Y-170089174D01*
X41098419Y-170130611D01*
X41089198Y-170161007D01*
X41074224Y-170189022D01*
X41054074Y-170213574D01*
X41029522Y-170233724D01*
X41001507Y-170248698D01*
X40971111Y-170257919D01*
X40929674Y-170262000D01*
X40223326Y-170262000D01*
X40181889Y-170257919D01*
X40151493Y-170248698D01*
X40123478Y-170233724D01*
X40098926Y-170213574D01*
X40078776Y-170189022D01*
X40063802Y-170161007D01*
X40054581Y-170130611D01*
X40050500Y-170089174D01*
X40050500Y-169282826D01*
X40054581Y-169241389D01*
X40063802Y-169210993D01*
X40078776Y-169182978D01*
X40098926Y-169158426D01*
X40123478Y-169138276D01*
X40151493Y-169123302D01*
X40181889Y-169114081D01*
X40223326Y-169110000D01*
X40929674Y-169110000D01*
X40971111Y-169114081D01*
X40971111Y-169114081D01*
G37*
G36*
X39066111Y-169114081D02*
G01*
X39096507Y-169123302D01*
X39124522Y-169138276D01*
X39149074Y-169158426D01*
X39169224Y-169182978D01*
X39184198Y-169210993D01*
X39193419Y-169241389D01*
X39197500Y-169282826D01*
X39197500Y-170089174D01*
X39193419Y-170130611D01*
X39184198Y-170161007D01*
X39169224Y-170189022D01*
X39149074Y-170213574D01*
X39124522Y-170233724D01*
X39096507Y-170248698D01*
X39066111Y-170257919D01*
X39024674Y-170262000D01*
X38318326Y-170262000D01*
X38276889Y-170257919D01*
X38246493Y-170248698D01*
X38218478Y-170233724D01*
X38193926Y-170213574D01*
X38173776Y-170189022D01*
X38158802Y-170161007D01*
X38149581Y-170130611D01*
X38145500Y-170089174D01*
X38145500Y-169282826D01*
X38149581Y-169241389D01*
X38158802Y-169210993D01*
X38173776Y-169182978D01*
X38193926Y-169158426D01*
X38218478Y-169138276D01*
X38246493Y-169123302D01*
X38276889Y-169114081D01*
X38318326Y-169110000D01*
X39024674Y-169110000D01*
X39066111Y-169114081D01*
X39066111Y-169114081D01*
G37*
G36*
X26301000Y-169811000D02*
G01*
X24499000Y-169811000D01*
X24499000Y-168009000D01*
X26301000Y-168009000D01*
X26301000Y-169811000D01*
X26301000Y-169811000D01*
G37*
G36*
X36498611Y-167562581D02*
G01*
X36529007Y-167571802D01*
X36557022Y-167586776D01*
X36581574Y-167606926D01*
X36601724Y-167631478D01*
X36616698Y-167659493D01*
X36625919Y-167689889D01*
X36630000Y-167731326D01*
X36630000Y-168437674D01*
X36625919Y-168479111D01*
X36616698Y-168509507D01*
X36601724Y-168537522D01*
X36581574Y-168562074D01*
X36557022Y-168582224D01*
X36529007Y-168597198D01*
X36498611Y-168606419D01*
X36457174Y-168610500D01*
X35650826Y-168610500D01*
X35609389Y-168606419D01*
X35578993Y-168597198D01*
X35550978Y-168582224D01*
X35526426Y-168562074D01*
X35506276Y-168537522D01*
X35491302Y-168509507D01*
X35482081Y-168479111D01*
X35478000Y-168437674D01*
X35478000Y-167731326D01*
X35482081Y-167689889D01*
X35491302Y-167659493D01*
X35506276Y-167631478D01*
X35526426Y-167606926D01*
X35550978Y-167586776D01*
X35578993Y-167571802D01*
X35609389Y-167562581D01*
X35650826Y-167558500D01*
X36457174Y-167558500D01*
X36498611Y-167562581D01*
X36498611Y-167562581D01*
G37*
G36*
X34748611Y-167562581D02*
G01*
X34779007Y-167571802D01*
X34807022Y-167586776D01*
X34831574Y-167606926D01*
X34851724Y-167631478D01*
X34866698Y-167659493D01*
X34875919Y-167689889D01*
X34880000Y-167731326D01*
X34880000Y-168437674D01*
X34875919Y-168479111D01*
X34866698Y-168509507D01*
X34851724Y-168537522D01*
X34831574Y-168562074D01*
X34807022Y-168582224D01*
X34779007Y-168597198D01*
X34748611Y-168606419D01*
X34707174Y-168610500D01*
X33900826Y-168610500D01*
X33859389Y-168606419D01*
X33828993Y-168597198D01*
X33800978Y-168582224D01*
X33776426Y-168562074D01*
X33756276Y-168537522D01*
X33741302Y-168509507D01*
X33732081Y-168479111D01*
X33728000Y-168437674D01*
X33728000Y-167731326D01*
X33732081Y-167689889D01*
X33741302Y-167659493D01*
X33756276Y-167631478D01*
X33776426Y-167606926D01*
X33800978Y-167586776D01*
X33828993Y-167571802D01*
X33859389Y-167562581D01*
X33900826Y-167558500D01*
X34707174Y-167558500D01*
X34748611Y-167562581D01*
X34748611Y-167562581D01*
G37*
G36*
X39130040Y-167291400D02*
G01*
X39144024Y-167295642D01*
X39156906Y-167302528D01*
X39168202Y-167311798D01*
X39177472Y-167323094D01*
X39184358Y-167335976D01*
X39188600Y-167349960D01*
X39191000Y-167374328D01*
X39191000Y-167905672D01*
X39188600Y-167930040D01*
X39184358Y-167944024D01*
X39177472Y-167956906D01*
X39168202Y-167968202D01*
X39156906Y-167977472D01*
X39144024Y-167984358D01*
X39130040Y-167988600D01*
X39105672Y-167991000D01*
X37224328Y-167991000D01*
X37199960Y-167988600D01*
X37185976Y-167984358D01*
X37173094Y-167977472D01*
X37161798Y-167968202D01*
X37152528Y-167956906D01*
X37145642Y-167944024D01*
X37141400Y-167930040D01*
X37139000Y-167905672D01*
X37139000Y-167374328D01*
X37141400Y-167349960D01*
X37145642Y-167335976D01*
X37152528Y-167323094D01*
X37161798Y-167311798D01*
X37173094Y-167302528D01*
X37185976Y-167295642D01*
X37199960Y-167291400D01*
X37224328Y-167289000D01*
X39105672Y-167289000D01*
X39130040Y-167291400D01*
X39130040Y-167291400D01*
G37*
G36*
X44080040Y-167291400D02*
G01*
X44094024Y-167295642D01*
X44106906Y-167302528D01*
X44118202Y-167311798D01*
X44127472Y-167323094D01*
X44134358Y-167335976D01*
X44138600Y-167349960D01*
X44141000Y-167374328D01*
X44141000Y-167905672D01*
X44138600Y-167930040D01*
X44134358Y-167944024D01*
X44127472Y-167956906D01*
X44118202Y-167968202D01*
X44106906Y-167977472D01*
X44094024Y-167984358D01*
X44080040Y-167988600D01*
X44055672Y-167991000D01*
X42174328Y-167991000D01*
X42149960Y-167988600D01*
X42135976Y-167984358D01*
X42123094Y-167977472D01*
X42111798Y-167968202D01*
X42102528Y-167956906D01*
X42095642Y-167944024D01*
X42091400Y-167930040D01*
X42089000Y-167905672D01*
X42089000Y-167374328D01*
X42091400Y-167349960D01*
X42095642Y-167335976D01*
X42102528Y-167323094D01*
X42111798Y-167311798D01*
X42123094Y-167302528D01*
X42135976Y-167295642D01*
X42149960Y-167291400D01*
X42174328Y-167289000D01*
X44055672Y-167289000D01*
X44080040Y-167291400D01*
X44080040Y-167291400D01*
G37*
G36*
X25576629Y-165482037D02*
G01*
X25746466Y-165533557D01*
X25902990Y-165617221D01*
X26040186Y-165729814D01*
X26152779Y-165867010D01*
X26236443Y-166023534D01*
X26287963Y-166193371D01*
X26305359Y-166370000D01*
X26287963Y-166546629D01*
X26236443Y-166716466D01*
X26152779Y-166872990D01*
X26040186Y-167010186D01*
X25902990Y-167122779D01*
X25746466Y-167206443D01*
X25576629Y-167257963D01*
X25444258Y-167271000D01*
X25355742Y-167271000D01*
X25223371Y-167257963D01*
X25053534Y-167206443D01*
X24897010Y-167122779D01*
X24759814Y-167010186D01*
X24647221Y-166872990D01*
X24563557Y-166716466D01*
X24512037Y-166546629D01*
X24494641Y-166370000D01*
X24512037Y-166193371D01*
X24563557Y-166023534D01*
X24647221Y-165867010D01*
X24759814Y-165729814D01*
X24897010Y-165617221D01*
X25053534Y-165533557D01*
X25223371Y-165482037D01*
X25355742Y-165469000D01*
X25444258Y-165469000D01*
X25576629Y-165482037D01*
X25576629Y-165482037D01*
G37*
G36*
X34748611Y-165975081D02*
G01*
X34779007Y-165984302D01*
X34807022Y-165999276D01*
X34831574Y-166019426D01*
X34851724Y-166043978D01*
X34866698Y-166071993D01*
X34875919Y-166102389D01*
X34880000Y-166143826D01*
X34880000Y-166850174D01*
X34875919Y-166891611D01*
X34866698Y-166922007D01*
X34851724Y-166950022D01*
X34831574Y-166974574D01*
X34807022Y-166994724D01*
X34779007Y-167009698D01*
X34748611Y-167018919D01*
X34707174Y-167023000D01*
X33900826Y-167023000D01*
X33859389Y-167018919D01*
X33828993Y-167009698D01*
X33800978Y-166994724D01*
X33776426Y-166974574D01*
X33756276Y-166950022D01*
X33741302Y-166922007D01*
X33732081Y-166891611D01*
X33728000Y-166850174D01*
X33728000Y-166143826D01*
X33732081Y-166102389D01*
X33741302Y-166071993D01*
X33756276Y-166043978D01*
X33776426Y-166019426D01*
X33800978Y-165999276D01*
X33828993Y-165984302D01*
X33859389Y-165975081D01*
X33900826Y-165971000D01*
X34707174Y-165971000D01*
X34748611Y-165975081D01*
X34748611Y-165975081D01*
G37*
G36*
X36498611Y-165975081D02*
G01*
X36529007Y-165984302D01*
X36557022Y-165999276D01*
X36581574Y-166019426D01*
X36601724Y-166043978D01*
X36616698Y-166071993D01*
X36625919Y-166102389D01*
X36630000Y-166143826D01*
X36630000Y-166850174D01*
X36625919Y-166891611D01*
X36616698Y-166922007D01*
X36601724Y-166950022D01*
X36581574Y-166974574D01*
X36557022Y-166994724D01*
X36529007Y-167009698D01*
X36498611Y-167018919D01*
X36457174Y-167023000D01*
X35650826Y-167023000D01*
X35609389Y-167018919D01*
X35578993Y-167009698D01*
X35550978Y-166994724D01*
X35526426Y-166974574D01*
X35506276Y-166950022D01*
X35491302Y-166922007D01*
X35482081Y-166891611D01*
X35478000Y-166850174D01*
X35478000Y-166143826D01*
X35482081Y-166102389D01*
X35491302Y-166071993D01*
X35506276Y-166043978D01*
X35526426Y-166019426D01*
X35550978Y-165999276D01*
X35578993Y-165984302D01*
X35609389Y-165975081D01*
X35650826Y-165971000D01*
X36457174Y-165971000D01*
X36498611Y-165975081D01*
X36498611Y-165975081D01*
G37*
G36*
X44080040Y-166021400D02*
G01*
X44094024Y-166025642D01*
X44106906Y-166032528D01*
X44118202Y-166041798D01*
X44127472Y-166053094D01*
X44134358Y-166065976D01*
X44138600Y-166079960D01*
X44141000Y-166104328D01*
X44141000Y-166635672D01*
X44138600Y-166660040D01*
X44134358Y-166674024D01*
X44127472Y-166686906D01*
X44118202Y-166698202D01*
X44106906Y-166707472D01*
X44094024Y-166714358D01*
X44080040Y-166718600D01*
X44055672Y-166721000D01*
X42174328Y-166721000D01*
X42149960Y-166718600D01*
X42135976Y-166714358D01*
X42123094Y-166707472D01*
X42111798Y-166698202D01*
X42102528Y-166686906D01*
X42095642Y-166674024D01*
X42091400Y-166660040D01*
X42089000Y-166635672D01*
X42089000Y-166104328D01*
X42091400Y-166079960D01*
X42095642Y-166065976D01*
X42102528Y-166053094D01*
X42111798Y-166041798D01*
X42123094Y-166032528D01*
X42135976Y-166025642D01*
X42149960Y-166021400D01*
X42174328Y-166019000D01*
X44055672Y-166019000D01*
X44080040Y-166021400D01*
X44080040Y-166021400D01*
G37*
G36*
X39130040Y-166021400D02*
G01*
X39144024Y-166025642D01*
X39156906Y-166032528D01*
X39168202Y-166041798D01*
X39177472Y-166053094D01*
X39184358Y-166065976D01*
X39188600Y-166079960D01*
X39191000Y-166104328D01*
X39191000Y-166635672D01*
X39188600Y-166660040D01*
X39184358Y-166674024D01*
X39177472Y-166686906D01*
X39168202Y-166698202D01*
X39156906Y-166707472D01*
X39144024Y-166714358D01*
X39130040Y-166718600D01*
X39105672Y-166721000D01*
X37224328Y-166721000D01*
X37199960Y-166718600D01*
X37185976Y-166714358D01*
X37173094Y-166707472D01*
X37161798Y-166698202D01*
X37152528Y-166686906D01*
X37145642Y-166674024D01*
X37141400Y-166660040D01*
X37139000Y-166635672D01*
X37139000Y-166104328D01*
X37141400Y-166079960D01*
X37145642Y-166065976D01*
X37152528Y-166053094D01*
X37161798Y-166041798D01*
X37173094Y-166032528D01*
X37185976Y-166025642D01*
X37199960Y-166021400D01*
X37224328Y-166019000D01*
X39105672Y-166019000D01*
X39130040Y-166021400D01*
X39130040Y-166021400D01*
G37*
G36*
X44080040Y-164751400D02*
G01*
X44094024Y-164755642D01*
X44106906Y-164762528D01*
X44118202Y-164771798D01*
X44127472Y-164783094D01*
X44134358Y-164795976D01*
X44138600Y-164809960D01*
X44141000Y-164834328D01*
X44141000Y-165365672D01*
X44138600Y-165390040D01*
X44134358Y-165404024D01*
X44127472Y-165416906D01*
X44118202Y-165428202D01*
X44106906Y-165437472D01*
X44094024Y-165444358D01*
X44080040Y-165448600D01*
X44055672Y-165451000D01*
X42174328Y-165451000D01*
X42149960Y-165448600D01*
X42135976Y-165444358D01*
X42123094Y-165437472D01*
X42111798Y-165428202D01*
X42102528Y-165416906D01*
X42095642Y-165404024D01*
X42091400Y-165390040D01*
X42089000Y-165365672D01*
X42089000Y-164834328D01*
X42091400Y-164809960D01*
X42095642Y-164795976D01*
X42102528Y-164783094D01*
X42111798Y-164771798D01*
X42123094Y-164762528D01*
X42135976Y-164755642D01*
X42149960Y-164751400D01*
X42174328Y-164749000D01*
X44055672Y-164749000D01*
X44080040Y-164751400D01*
X44080040Y-164751400D01*
G37*
G36*
X39130040Y-164751400D02*
G01*
X39144024Y-164755642D01*
X39156906Y-164762528D01*
X39168202Y-164771798D01*
X39177472Y-164783094D01*
X39184358Y-164795976D01*
X39188600Y-164809960D01*
X39191000Y-164834328D01*
X39191000Y-165365672D01*
X39188600Y-165390040D01*
X39184358Y-165404024D01*
X39177472Y-165416906D01*
X39168202Y-165428202D01*
X39156906Y-165437472D01*
X39144024Y-165444358D01*
X39130040Y-165448600D01*
X39105672Y-165451000D01*
X37224328Y-165451000D01*
X37199960Y-165448600D01*
X37185976Y-165444358D01*
X37173094Y-165437472D01*
X37161798Y-165428202D01*
X37152528Y-165416906D01*
X37145642Y-165404024D01*
X37141400Y-165390040D01*
X37139000Y-165365672D01*
X37139000Y-164834328D01*
X37141400Y-164809960D01*
X37145642Y-164795976D01*
X37152528Y-164783094D01*
X37161798Y-164771798D01*
X37173094Y-164762528D01*
X37185976Y-164755642D01*
X37199960Y-164751400D01*
X37224328Y-164749000D01*
X39105672Y-164749000D01*
X39130040Y-164751400D01*
X39130040Y-164751400D01*
G37*
G36*
X77487410Y-162238604D02*
G01*
X77769674Y-162355521D01*
X78023705Y-162525259D01*
X78239741Y-162741295D01*
X78409479Y-162995326D01*
X78526396Y-163277590D01*
X78586000Y-163577240D01*
X78586000Y-163882760D01*
X78526396Y-164182410D01*
X78409479Y-164464674D01*
X78239741Y-164718705D01*
X78023705Y-164934741D01*
X77769674Y-165104479D01*
X77487410Y-165221396D01*
X77187760Y-165281000D01*
X76882240Y-165281000D01*
X76582590Y-165221396D01*
X76300326Y-165104479D01*
X76046295Y-164934741D01*
X75830259Y-164718705D01*
X75660521Y-164464674D01*
X75543604Y-164182410D01*
X75484000Y-163882760D01*
X75484000Y-163577240D01*
X75543604Y-163277590D01*
X75660521Y-162995326D01*
X75830259Y-162741295D01*
X76046295Y-162525259D01*
X76300326Y-162355521D01*
X76582590Y-162238604D01*
X76882240Y-162179000D01*
X77187760Y-162179000D01*
X77487410Y-162238604D01*
X77487410Y-162238604D01*
G37*
G36*
X69867410Y-162238604D02*
G01*
X70149674Y-162355521D01*
X70403705Y-162525259D01*
X70619741Y-162741295D01*
X70789479Y-162995326D01*
X70906396Y-163277590D01*
X70966000Y-163577240D01*
X70966000Y-163882760D01*
X70906396Y-164182410D01*
X70789479Y-164464674D01*
X70619741Y-164718705D01*
X70403705Y-164934741D01*
X70149674Y-165104479D01*
X69867410Y-165221396D01*
X69567760Y-165281000D01*
X69262240Y-165281000D01*
X68962590Y-165221396D01*
X68680326Y-165104479D01*
X68426295Y-164934741D01*
X68210259Y-164718705D01*
X68040521Y-164464674D01*
X67923604Y-164182410D01*
X67864000Y-163882760D01*
X67864000Y-163577240D01*
X67923604Y-163277590D01*
X68040521Y-162995326D01*
X68210259Y-162741295D01*
X68426295Y-162525259D01*
X68680326Y-162355521D01*
X68962590Y-162238604D01*
X69262240Y-162179000D01*
X69567760Y-162179000D01*
X69867410Y-162238604D01*
X69867410Y-162238604D01*
G37*
G36*
X54392410Y-162013604D02*
G01*
X54674674Y-162130521D01*
X54928705Y-162300259D01*
X55144741Y-162516295D01*
X55314479Y-162770326D01*
X55431396Y-163052590D01*
X55491000Y-163352240D01*
X55491000Y-163657760D01*
X55431396Y-163957410D01*
X55314479Y-164239674D01*
X55144741Y-164493705D01*
X54928705Y-164709741D01*
X54674674Y-164879479D01*
X54392410Y-164996396D01*
X54092760Y-165056000D01*
X53787240Y-165056000D01*
X53487590Y-164996396D01*
X53205326Y-164879479D01*
X52951295Y-164709741D01*
X52735259Y-164493705D01*
X52565521Y-164239674D01*
X52448604Y-163957410D01*
X52389000Y-163657760D01*
X52389000Y-163352240D01*
X52448604Y-163052590D01*
X52565521Y-162770326D01*
X52735259Y-162516295D01*
X52951295Y-162300259D01*
X53205326Y-162130521D01*
X53487590Y-162013604D01*
X53787240Y-161954000D01*
X54092760Y-161954000D01*
X54392410Y-162013604D01*
X54392410Y-162013604D01*
G37*
G36*
X62012410Y-162013604D02*
G01*
X62294674Y-162130521D01*
X62548705Y-162300259D01*
X62764741Y-162516295D01*
X62934479Y-162770326D01*
X63051396Y-163052590D01*
X63111000Y-163352240D01*
X63111000Y-163657760D01*
X63051396Y-163957410D01*
X62934479Y-164239674D01*
X62764741Y-164493705D01*
X62548705Y-164709741D01*
X62294674Y-164879479D01*
X62012410Y-164996396D01*
X61712760Y-165056000D01*
X61407240Y-165056000D01*
X61107590Y-164996396D01*
X60825326Y-164879479D01*
X60571295Y-164709741D01*
X60355259Y-164493705D01*
X60185521Y-164239674D01*
X60068604Y-163957410D01*
X60009000Y-163657760D01*
X60009000Y-163352240D01*
X60068604Y-163052590D01*
X60185521Y-162770326D01*
X60355259Y-162516295D01*
X60571295Y-162300259D01*
X60825326Y-162130521D01*
X61107590Y-162013604D01*
X61407240Y-161954000D01*
X61712760Y-161954000D01*
X62012410Y-162013604D01*
X62012410Y-162013604D01*
G37*
G36*
X44080040Y-163481400D02*
G01*
X44094024Y-163485642D01*
X44106906Y-163492528D01*
X44118202Y-163501798D01*
X44127472Y-163513094D01*
X44134358Y-163525976D01*
X44138600Y-163539960D01*
X44141000Y-163564328D01*
X44141000Y-164095672D01*
X44138600Y-164120040D01*
X44134358Y-164134024D01*
X44127472Y-164146906D01*
X44118202Y-164158202D01*
X44106906Y-164167472D01*
X44094024Y-164174358D01*
X44080040Y-164178600D01*
X44055672Y-164181000D01*
X42174328Y-164181000D01*
X42149960Y-164178600D01*
X42135976Y-164174358D01*
X42123094Y-164167472D01*
X42111798Y-164158202D01*
X42102528Y-164146906D01*
X42095642Y-164134024D01*
X42091400Y-164120040D01*
X42089000Y-164095672D01*
X42089000Y-163564328D01*
X42091400Y-163539960D01*
X42095642Y-163525976D01*
X42102528Y-163513094D01*
X42111798Y-163501798D01*
X42123094Y-163492528D01*
X42135976Y-163485642D01*
X42149960Y-163481400D01*
X42174328Y-163479000D01*
X44055672Y-163479000D01*
X44080040Y-163481400D01*
X44080040Y-163481400D01*
G37*
G36*
X39130040Y-163481400D02*
G01*
X39144024Y-163485642D01*
X39156906Y-163492528D01*
X39168202Y-163501798D01*
X39177472Y-163513094D01*
X39184358Y-163525976D01*
X39188600Y-163539960D01*
X39191000Y-163564328D01*
X39191000Y-164095672D01*
X39188600Y-164120040D01*
X39184358Y-164134024D01*
X39177472Y-164146906D01*
X39168202Y-164158202D01*
X39156906Y-164167472D01*
X39144024Y-164174358D01*
X39130040Y-164178600D01*
X39105672Y-164181000D01*
X37224328Y-164181000D01*
X37199960Y-164178600D01*
X37185976Y-164174358D01*
X37173094Y-164167472D01*
X37161798Y-164158202D01*
X37152528Y-164146906D01*
X37145642Y-164134024D01*
X37141400Y-164120040D01*
X37139000Y-164095672D01*
X37139000Y-163564328D01*
X37141400Y-163539960D01*
X37145642Y-163525976D01*
X37152528Y-163513094D01*
X37161798Y-163501798D01*
X37173094Y-163492528D01*
X37185976Y-163485642D01*
X37199960Y-163481400D01*
X37224328Y-163479000D01*
X39105672Y-163479000D01*
X39130040Y-163481400D01*
X39130040Y-163481400D01*
G37*
G36*
X44080040Y-162211400D02*
G01*
X44094024Y-162215642D01*
X44106906Y-162222528D01*
X44118202Y-162231798D01*
X44127472Y-162243094D01*
X44134358Y-162255976D01*
X44138600Y-162269960D01*
X44141000Y-162294328D01*
X44141000Y-162825672D01*
X44138600Y-162850040D01*
X44134358Y-162864024D01*
X44127472Y-162876906D01*
X44118202Y-162888202D01*
X44106906Y-162897472D01*
X44094024Y-162904358D01*
X44080040Y-162908600D01*
X44055672Y-162911000D01*
X42174328Y-162911000D01*
X42149960Y-162908600D01*
X42135976Y-162904358D01*
X42123094Y-162897472D01*
X42111798Y-162888202D01*
X42102528Y-162876906D01*
X42095642Y-162864024D01*
X42091400Y-162850040D01*
X42089000Y-162825672D01*
X42089000Y-162294328D01*
X42091400Y-162269960D01*
X42095642Y-162255976D01*
X42102528Y-162243094D01*
X42111798Y-162231798D01*
X42123094Y-162222528D01*
X42135976Y-162215642D01*
X42149960Y-162211400D01*
X42174328Y-162209000D01*
X44055672Y-162209000D01*
X44080040Y-162211400D01*
X44080040Y-162211400D01*
G37*
G36*
X39130040Y-162211400D02*
G01*
X39144024Y-162215642D01*
X39156906Y-162222528D01*
X39168202Y-162231798D01*
X39177472Y-162243094D01*
X39184358Y-162255976D01*
X39188600Y-162269960D01*
X39191000Y-162294328D01*
X39191000Y-162825672D01*
X39188600Y-162850040D01*
X39184358Y-162864024D01*
X39177472Y-162876906D01*
X39168202Y-162888202D01*
X39156906Y-162897472D01*
X39144024Y-162904358D01*
X39130040Y-162908600D01*
X39105672Y-162911000D01*
X37224328Y-162911000D01*
X37199960Y-162908600D01*
X37185976Y-162904358D01*
X37173094Y-162897472D01*
X37161798Y-162888202D01*
X37152528Y-162876906D01*
X37145642Y-162864024D01*
X37141400Y-162850040D01*
X37139000Y-162825672D01*
X37139000Y-162294328D01*
X37141400Y-162269960D01*
X37145642Y-162255976D01*
X37152528Y-162243094D01*
X37161798Y-162231798D01*
X37173094Y-162222528D01*
X37185976Y-162215642D01*
X37199960Y-162211400D01*
X37224328Y-162209000D01*
X39105672Y-162209000D01*
X39130040Y-162211400D01*
X39130040Y-162211400D01*
G37*
G36*
X44080040Y-160941400D02*
G01*
X44094024Y-160945642D01*
X44106906Y-160952528D01*
X44118202Y-160961798D01*
X44127472Y-160973094D01*
X44134358Y-160985976D01*
X44138600Y-160999960D01*
X44141000Y-161024328D01*
X44141000Y-161555672D01*
X44138600Y-161580040D01*
X44134358Y-161594024D01*
X44127472Y-161606906D01*
X44118202Y-161618202D01*
X44106906Y-161627472D01*
X44094024Y-161634358D01*
X44080040Y-161638600D01*
X44055672Y-161641000D01*
X42174328Y-161641000D01*
X42149960Y-161638600D01*
X42135976Y-161634358D01*
X42123094Y-161627472D01*
X42111798Y-161618202D01*
X42102528Y-161606906D01*
X42095642Y-161594024D01*
X42091400Y-161580040D01*
X42089000Y-161555672D01*
X42089000Y-161024328D01*
X42091400Y-160999960D01*
X42095642Y-160985976D01*
X42102528Y-160973094D01*
X42111798Y-160961798D01*
X42123094Y-160952528D01*
X42135976Y-160945642D01*
X42149960Y-160941400D01*
X42174328Y-160939000D01*
X44055672Y-160939000D01*
X44080040Y-160941400D01*
X44080040Y-160941400D01*
G37*
G36*
X39130040Y-160941400D02*
G01*
X39144024Y-160945642D01*
X39156906Y-160952528D01*
X39168202Y-160961798D01*
X39177472Y-160973094D01*
X39184358Y-160985976D01*
X39188600Y-160999960D01*
X39191000Y-161024328D01*
X39191000Y-161555672D01*
X39188600Y-161580040D01*
X39184358Y-161594024D01*
X39177472Y-161606906D01*
X39168202Y-161618202D01*
X39156906Y-161627472D01*
X39144024Y-161634358D01*
X39130040Y-161638600D01*
X39105672Y-161641000D01*
X37224328Y-161641000D01*
X37199960Y-161638600D01*
X37185976Y-161634358D01*
X37173094Y-161627472D01*
X37161798Y-161618202D01*
X37152528Y-161606906D01*
X37145642Y-161594024D01*
X37141400Y-161580040D01*
X37139000Y-161555672D01*
X37139000Y-161024328D01*
X37141400Y-160999960D01*
X37145642Y-160985976D01*
X37152528Y-160973094D01*
X37161798Y-160961798D01*
X37173094Y-160952528D01*
X37185976Y-160945642D01*
X37199960Y-160941400D01*
X37224328Y-160939000D01*
X39105672Y-160939000D01*
X39130040Y-160941400D01*
X39130040Y-160941400D01*
G37*
G36*
X44080040Y-159671400D02*
G01*
X44094024Y-159675642D01*
X44106906Y-159682528D01*
X44118202Y-159691798D01*
X44127472Y-159703094D01*
X44134358Y-159715976D01*
X44138600Y-159729960D01*
X44141000Y-159754328D01*
X44141000Y-160285672D01*
X44138600Y-160310040D01*
X44134358Y-160324024D01*
X44127472Y-160336906D01*
X44118202Y-160348202D01*
X44106906Y-160357472D01*
X44094024Y-160364358D01*
X44080040Y-160368600D01*
X44055672Y-160371000D01*
X42174328Y-160371000D01*
X42149960Y-160368600D01*
X42135976Y-160364358D01*
X42123094Y-160357472D01*
X42111798Y-160348202D01*
X42102528Y-160336906D01*
X42095642Y-160324024D01*
X42091400Y-160310040D01*
X42089000Y-160285672D01*
X42089000Y-159754328D01*
X42091400Y-159729960D01*
X42095642Y-159715976D01*
X42102528Y-159703094D01*
X42111798Y-159691798D01*
X42123094Y-159682528D01*
X42135976Y-159675642D01*
X42149960Y-159671400D01*
X42174328Y-159669000D01*
X44055672Y-159669000D01*
X44080040Y-159671400D01*
X44080040Y-159671400D01*
G37*
G36*
X39130040Y-159671400D02*
G01*
X39144024Y-159675642D01*
X39156906Y-159682528D01*
X39168202Y-159691798D01*
X39177472Y-159703094D01*
X39184358Y-159715976D01*
X39188600Y-159729960D01*
X39191000Y-159754328D01*
X39191000Y-160285672D01*
X39188600Y-160310040D01*
X39184358Y-160324024D01*
X39177472Y-160336906D01*
X39168202Y-160348202D01*
X39156906Y-160357472D01*
X39144024Y-160364358D01*
X39130040Y-160368600D01*
X39105672Y-160371000D01*
X37224328Y-160371000D01*
X37199960Y-160368600D01*
X37185976Y-160364358D01*
X37173094Y-160357472D01*
X37161798Y-160348202D01*
X37152528Y-160336906D01*
X37145642Y-160324024D01*
X37141400Y-160310040D01*
X37139000Y-160285672D01*
X37139000Y-159754328D01*
X37141400Y-159729960D01*
X37145642Y-159715976D01*
X37152528Y-159703094D01*
X37161798Y-159691798D01*
X37173094Y-159682528D01*
X37185976Y-159675642D01*
X37199960Y-159671400D01*
X37224328Y-159669000D01*
X39105672Y-159669000D01*
X39130040Y-159671400D01*
X39130040Y-159671400D01*
G37*
G36*
X72276000Y-159601000D02*
G01*
X69174000Y-159601000D01*
X69174000Y-156499000D01*
X72276000Y-156499000D01*
X72276000Y-159601000D01*
X72276000Y-159601000D01*
G37*
G36*
X76257410Y-156558604D02*
G01*
X76539674Y-156675521D01*
X76793705Y-156845259D01*
X77009741Y-157061295D01*
X77179479Y-157315326D01*
X77296396Y-157597590D01*
X77356000Y-157897240D01*
X77356000Y-158202760D01*
X77296396Y-158502410D01*
X77179479Y-158784674D01*
X77009741Y-159038705D01*
X76793705Y-159254741D01*
X76539674Y-159424479D01*
X76257410Y-159541396D01*
X75957760Y-159601000D01*
X75652240Y-159601000D01*
X75352590Y-159541396D01*
X75070326Y-159424479D01*
X74816295Y-159254741D01*
X74600259Y-159038705D01*
X74430521Y-158784674D01*
X74313604Y-158502410D01*
X74254000Y-158202760D01*
X74254000Y-157897240D01*
X74313604Y-157597590D01*
X74430521Y-157315326D01*
X74600259Y-157061295D01*
X74816295Y-156845259D01*
X75070326Y-156675521D01*
X75352590Y-156558604D01*
X75652240Y-156499000D01*
X75957760Y-156499000D01*
X76257410Y-156558604D01*
X76257410Y-156558604D01*
G37*
G36*
X60782410Y-156083604D02*
G01*
X61064674Y-156200521D01*
X61318705Y-156370259D01*
X61534741Y-156586295D01*
X61704479Y-156840326D01*
X61821396Y-157122590D01*
X61881000Y-157422240D01*
X61881000Y-157727760D01*
X61821396Y-158027410D01*
X61704479Y-158309674D01*
X61534741Y-158563705D01*
X61318705Y-158779741D01*
X61064674Y-158949479D01*
X60782410Y-159066396D01*
X60482760Y-159126000D01*
X60177240Y-159126000D01*
X59877590Y-159066396D01*
X59595326Y-158949479D01*
X59341295Y-158779741D01*
X59125259Y-158563705D01*
X58955521Y-158309674D01*
X58838604Y-158027410D01*
X58779000Y-157727760D01*
X58779000Y-157422240D01*
X58838604Y-157122590D01*
X58955521Y-156840326D01*
X59125259Y-156586295D01*
X59341295Y-156370259D01*
X59595326Y-156200521D01*
X59877590Y-156083604D01*
X60177240Y-156024000D01*
X60482760Y-156024000D01*
X60782410Y-156083604D01*
X60782410Y-156083604D01*
G37*
G36*
X56801000Y-159126000D02*
G01*
X53699000Y-159126000D01*
X53699000Y-156024000D01*
X56801000Y-156024000D01*
X56801000Y-159126000D01*
X56801000Y-159126000D01*
G37*
G36*
X25677395Y-155295546D02*
G01*
X25850470Y-155367236D01*
X26005525Y-155470841D01*
X26006227Y-155471310D01*
X26138690Y-155603773D01*
X26138692Y-155603776D01*
X26242764Y-155759530D01*
X26314454Y-155932605D01*
X26351000Y-156116335D01*
X26351000Y-156303665D01*
X26314454Y-156487395D01*
X26242764Y-156660470D01*
X26139159Y-156815525D01*
X26138690Y-156816227D01*
X26006227Y-156948690D01*
X26006224Y-156948692D01*
X25850470Y-157052764D01*
X25677395Y-157124454D01*
X25493665Y-157161000D01*
X25306335Y-157161000D01*
X25122605Y-157124454D01*
X24949530Y-157052764D01*
X24793776Y-156948692D01*
X24793773Y-156948690D01*
X24661310Y-156816227D01*
X24660841Y-156815525D01*
X24557236Y-156660470D01*
X24485546Y-156487395D01*
X24449000Y-156303665D01*
X24449000Y-156116335D01*
X24485546Y-155932605D01*
X24557236Y-155759530D01*
X24661308Y-155603776D01*
X24661310Y-155603773D01*
X24793773Y-155471310D01*
X24794475Y-155470841D01*
X24949530Y-155367236D01*
X25122605Y-155295546D01*
X25306335Y-155259000D01*
X25493665Y-155259000D01*
X25677395Y-155295546D01*
X25677395Y-155295546D01*
G37*
G36*
X25677395Y-152755546D02*
G01*
X25850470Y-152827236D01*
X26005525Y-152930841D01*
X26006227Y-152931310D01*
X26138690Y-153063773D01*
X26138692Y-153063776D01*
X26242764Y-153219530D01*
X26314454Y-153392605D01*
X26351000Y-153576335D01*
X26351000Y-153763665D01*
X26314454Y-153947395D01*
X26242764Y-154120470D01*
X26139159Y-154275525D01*
X26138690Y-154276227D01*
X26006227Y-154408690D01*
X26006224Y-154408692D01*
X25850470Y-154512764D01*
X25677395Y-154584454D01*
X25493665Y-154621000D01*
X25306335Y-154621000D01*
X25122605Y-154584454D01*
X24949530Y-154512764D01*
X24793776Y-154408692D01*
X24793773Y-154408690D01*
X24661310Y-154276227D01*
X24660841Y-154275525D01*
X24557236Y-154120470D01*
X24485546Y-153947395D01*
X24449000Y-153763665D01*
X24449000Y-153576335D01*
X24485546Y-153392605D01*
X24557236Y-153219530D01*
X24661308Y-153063776D01*
X24661310Y-153063773D01*
X24793773Y-152931310D01*
X24794475Y-152930841D01*
X24949530Y-152827236D01*
X25122605Y-152755546D01*
X25306335Y-152719000D01*
X25493665Y-152719000D01*
X25677395Y-152755546D01*
X25677395Y-152755546D01*
G37*
G36*
X33624119Y-150848420D02*
G01*
X33746834Y-150885645D01*
X33859926Y-150946094D01*
X33959053Y-151027447D01*
X34040406Y-151126574D01*
X34100855Y-151239666D01*
X34138080Y-151362381D01*
X34147500Y-151458027D01*
X34147500Y-152071973D01*
X34138080Y-152167619D01*
X34100855Y-152290334D01*
X34040406Y-152403426D01*
X33959054Y-152502553D01*
X33859925Y-152583905D01*
X33746833Y-152644355D01*
X33624118Y-152681580D01*
X33496500Y-152694149D01*
X33368881Y-152681580D01*
X33246166Y-152644355D01*
X33133074Y-152583906D01*
X33033947Y-152502554D01*
X32952595Y-152403425D01*
X32892145Y-152290333D01*
X32854920Y-152167618D01*
X32845500Y-152071972D01*
X32845500Y-151458027D01*
X32854920Y-151362381D01*
X32892145Y-151239669D01*
X32892145Y-151239668D01*
X32952595Y-151126574D01*
X33033948Y-151027447D01*
X33063239Y-151003408D01*
X33133075Y-150946094D01*
X33246167Y-150885645D01*
X33368882Y-150848420D01*
X33496500Y-150835851D01*
X33624119Y-150848420D01*
X33624119Y-150848420D01*
G37*
G36*
X42704619Y-150848420D02*
G01*
X42827334Y-150885645D01*
X42940426Y-150946094D01*
X43039553Y-151027447D01*
X43120906Y-151126574D01*
X43181355Y-151239666D01*
X43218580Y-151362381D01*
X43228000Y-151458027D01*
X43228000Y-152071973D01*
X43218580Y-152167619D01*
X43181355Y-152290334D01*
X43120906Y-152403426D01*
X43039554Y-152502553D01*
X42940425Y-152583905D01*
X42827333Y-152644355D01*
X42704618Y-152681580D01*
X42577000Y-152694149D01*
X42449381Y-152681580D01*
X42326666Y-152644355D01*
X42213574Y-152583906D01*
X42114447Y-152502554D01*
X42033095Y-152403425D01*
X41972645Y-152290333D01*
X41935420Y-152167618D01*
X41926000Y-152071972D01*
X41926000Y-151458027D01*
X41935420Y-151362381D01*
X41972645Y-151239669D01*
X41972645Y-151239668D01*
X42033095Y-151126574D01*
X42114448Y-151027447D01*
X42143739Y-151003408D01*
X42213575Y-150946094D01*
X42326667Y-150885645D01*
X42449382Y-150848420D01*
X42577000Y-150835851D01*
X42704619Y-150848420D01*
X42704619Y-150848420D01*
G37*
G36*
X40704619Y-150848420D02*
G01*
X40827334Y-150885645D01*
X40940426Y-150946094D01*
X41039553Y-151027447D01*
X41120906Y-151126574D01*
X41181355Y-151239666D01*
X41218580Y-151362381D01*
X41228000Y-151458027D01*
X41228000Y-152071973D01*
X41218580Y-152167619D01*
X41181355Y-152290334D01*
X41120906Y-152403426D01*
X41039554Y-152502553D01*
X40940425Y-152583905D01*
X40827333Y-152644355D01*
X40704618Y-152681580D01*
X40577000Y-152694149D01*
X40449381Y-152681580D01*
X40326666Y-152644355D01*
X40213574Y-152583906D01*
X40114447Y-152502554D01*
X40033095Y-152403425D01*
X39972645Y-152290333D01*
X39935420Y-152167618D01*
X39926000Y-152071972D01*
X39926000Y-151458027D01*
X39935420Y-151362381D01*
X39972645Y-151239669D01*
X39972645Y-151239668D01*
X40033095Y-151126574D01*
X40114448Y-151027447D01*
X40143739Y-151003408D01*
X40213575Y-150946094D01*
X40326667Y-150885645D01*
X40449382Y-150848420D01*
X40577000Y-150835851D01*
X40704619Y-150848420D01*
X40704619Y-150848420D01*
G37*
G36*
X31624119Y-150848420D02*
G01*
X31746834Y-150885645D01*
X31859926Y-150946094D01*
X31959053Y-151027447D01*
X32040406Y-151126574D01*
X32100855Y-151239666D01*
X32138080Y-151362381D01*
X32147500Y-151458027D01*
X32147500Y-152071973D01*
X32138080Y-152167619D01*
X32100855Y-152290334D01*
X32040406Y-152403426D01*
X31959054Y-152502553D01*
X31859925Y-152583905D01*
X31746833Y-152644355D01*
X31624118Y-152681580D01*
X31496500Y-152694149D01*
X31368881Y-152681580D01*
X31246166Y-152644355D01*
X31133074Y-152583906D01*
X31033947Y-152502554D01*
X30952595Y-152403425D01*
X30892145Y-152290333D01*
X30854920Y-152167618D01*
X30845500Y-152071972D01*
X30845500Y-151458027D01*
X30854920Y-151362381D01*
X30892145Y-151239669D01*
X30892145Y-151239668D01*
X30952595Y-151126574D01*
X31033948Y-151027447D01*
X31063239Y-151003408D01*
X31133075Y-150946094D01*
X31246167Y-150885645D01*
X31368882Y-150848420D01*
X31496500Y-150835851D01*
X31624119Y-150848420D01*
X31624119Y-150848420D01*
G37*
G36*
X45103386Y-150842919D02*
G01*
X45132202Y-150851660D01*
X45158759Y-150865856D01*
X45182039Y-150884961D01*
X45201144Y-150908241D01*
X45215340Y-150934798D01*
X45224081Y-150963614D01*
X45228000Y-151003408D01*
X45228000Y-152526592D01*
X45224081Y-152566386D01*
X45215340Y-152595202D01*
X45201144Y-152621759D01*
X45182039Y-152645039D01*
X45158759Y-152664144D01*
X45132202Y-152678340D01*
X45103386Y-152687081D01*
X45063592Y-152691000D01*
X44090408Y-152691000D01*
X44050614Y-152687081D01*
X44021798Y-152678340D01*
X43995241Y-152664144D01*
X43971961Y-152645039D01*
X43952856Y-152621759D01*
X43938660Y-152595202D01*
X43929919Y-152566386D01*
X43926000Y-152526592D01*
X43926000Y-151003408D01*
X43929919Y-150963614D01*
X43938660Y-150934798D01*
X43952856Y-150908241D01*
X43971961Y-150884961D01*
X43995241Y-150865856D01*
X44021798Y-150851660D01*
X44050614Y-150842919D01*
X44090408Y-150839000D01*
X45063592Y-150839000D01*
X45103386Y-150842919D01*
X45103386Y-150842919D01*
G37*
G36*
X36022886Y-150842919D02*
G01*
X36051702Y-150851660D01*
X36078259Y-150865856D01*
X36101539Y-150884961D01*
X36120644Y-150908241D01*
X36134840Y-150934798D01*
X36143581Y-150963614D01*
X36147500Y-151003408D01*
X36147500Y-152526592D01*
X36143581Y-152566386D01*
X36134840Y-152595202D01*
X36120644Y-152621759D01*
X36101539Y-152645039D01*
X36078259Y-152664144D01*
X36051702Y-152678340D01*
X36022886Y-152687081D01*
X35983092Y-152691000D01*
X35009908Y-152691000D01*
X34970114Y-152687081D01*
X34941298Y-152678340D01*
X34914741Y-152664144D01*
X34891461Y-152645039D01*
X34872356Y-152621759D01*
X34858160Y-152595202D01*
X34849419Y-152566386D01*
X34845500Y-152526592D01*
X34845500Y-151003408D01*
X34849419Y-150963614D01*
X34858160Y-150934798D01*
X34872356Y-150908241D01*
X34891461Y-150884961D01*
X34914741Y-150865856D01*
X34941298Y-150851660D01*
X34970114Y-150842919D01*
X35009908Y-150839000D01*
X35983092Y-150839000D01*
X36022886Y-150842919D01*
X36022886Y-150842919D01*
G37*
G36*
X26256090Y-150182210D02*
G01*
X26277987Y-150188852D01*
X26298163Y-150199636D01*
X26315849Y-150214151D01*
X26330364Y-150231837D01*
X26341148Y-150252013D01*
X26347790Y-150273910D01*
X26351000Y-150306501D01*
X26351000Y-151953499D01*
X26347790Y-151986090D01*
X26341148Y-152007987D01*
X26330364Y-152028163D01*
X26315849Y-152045849D01*
X26298163Y-152060364D01*
X26277987Y-152071148D01*
X26256090Y-152077790D01*
X26223499Y-152081000D01*
X24576501Y-152081000D01*
X24543910Y-152077790D01*
X24522013Y-152071148D01*
X24501837Y-152060364D01*
X24484151Y-152045849D01*
X24469636Y-152028163D01*
X24458852Y-152007987D01*
X24452210Y-151986090D01*
X24449000Y-151953499D01*
X24449000Y-150306501D01*
X24452210Y-150273910D01*
X24458852Y-150252013D01*
X24469636Y-150231837D01*
X24484151Y-150214151D01*
X24501837Y-150199636D01*
X24522013Y-150188852D01*
X24543910Y-150182210D01*
X24576501Y-150179000D01*
X26223499Y-150179000D01*
X26256090Y-150182210D01*
X26256090Y-150182210D01*
G37*
M02*
