G04 #@! TF.GenerationSoftware,KiCad,Pcbnew,(5.1.2)-1*
G04 #@! TF.CreationDate,2019-05-27T08:40:29+02:00*
G04 #@! TF.ProjectId,fireSound,66697265-536f-4756-9e64-2e6b69636164,rev?*
G04 #@! TF.SameCoordinates,Original*
G04 #@! TF.FileFunction,Legend,Top*
G04 #@! TF.FilePolarity,Positive*
%FSLAX46Y46*%
G04 Gerber Fmt 4.6, Leading zero omitted, Abs format (unit mm)*
G04 Created by KiCad (PCBNEW (5.1.2)-1) date 2019-05-27 08:40:29*
%MOMM*%
%LPD*%
G04 APERTURE LIST*
%ADD10C,0.120000*%
%ADD11C,0.150000*%
G04 APERTURE END LIST*
D10*
X78475000Y-153550000D02*
X78975000Y-153550000D01*
X67725000Y-190050000D02*
X67475000Y-190050000D01*
X78975000Y-153550000D02*
X78975000Y-190050000D01*
X67225000Y-179300000D02*
X67225000Y-153550000D01*
X67225000Y-190050000D02*
X67225000Y-179300000D01*
X67225000Y-153550000D02*
X78475000Y-153550000D01*
X67475000Y-190050000D02*
X67225000Y-190050000D01*
X78975000Y-190050000D02*
X67725000Y-190050000D01*
X52000000Y-189825000D02*
X52000000Y-179075000D01*
X52250000Y-189825000D02*
X52000000Y-189825000D01*
X52500000Y-189825000D02*
X52250000Y-189825000D01*
X63750000Y-189825000D02*
X52500000Y-189825000D01*
X63750000Y-153325000D02*
X63750000Y-189825000D01*
X63250000Y-153325000D02*
X63750000Y-153325000D01*
X52000000Y-153325000D02*
X63250000Y-153325000D01*
X52000000Y-179075000D02*
X52000000Y-153325000D01*
X73225000Y-168050000D02*
X75725000Y-168050000D01*
X71475000Y-168050000D02*
X73475000Y-169300000D01*
X69475000Y-168050000D02*
X71475000Y-168050000D01*
X77985000Y-180030000D02*
X68435000Y-180030000D01*
X77975000Y-163050000D02*
X77985000Y-180030000D01*
X68425000Y-163050000D02*
X77975000Y-163050000D01*
X68435000Y-180030000D02*
X68425000Y-163050000D01*
X70545000Y-174950000D02*
X70545000Y-173680000D01*
X75625000Y-174950000D02*
X70545000Y-174950000D01*
X75625000Y-172410000D02*
X75625000Y-174950000D01*
X70545000Y-172410000D02*
X75625000Y-172410000D01*
X70545000Y-173680000D02*
X70545000Y-172410000D01*
X69275000Y-173680000D02*
X70545000Y-173680000D01*
X69275000Y-174950000D02*
X69275000Y-173680000D01*
X76895000Y-173680000D02*
X76895000Y-174950000D01*
X75625000Y-173680000D02*
X76895000Y-173680000D01*
X74115000Y-174950000D02*
X75385000Y-172410000D01*
X73875000Y-174890000D02*
X73875000Y-172490000D01*
X58400000Y-174665000D02*
X58400000Y-172265000D01*
X58640000Y-174725000D02*
X59910000Y-172185000D01*
X60150000Y-173455000D02*
X61420000Y-173455000D01*
X61420000Y-173455000D02*
X61420000Y-174725000D01*
X53800000Y-174725000D02*
X53800000Y-173455000D01*
X53800000Y-173455000D02*
X55070000Y-173455000D01*
X55070000Y-173455000D02*
X55070000Y-172185000D01*
X55070000Y-172185000D02*
X60150000Y-172185000D01*
X60150000Y-172185000D02*
X60150000Y-174725000D01*
X60150000Y-174725000D02*
X55070000Y-174725000D01*
X55070000Y-174725000D02*
X55070000Y-173455000D01*
X52960000Y-179805000D02*
X52950000Y-162825000D01*
X52950000Y-162825000D02*
X62500000Y-162825000D01*
X62500000Y-162825000D02*
X62510000Y-179805000D01*
X62510000Y-179805000D02*
X52960000Y-179805000D01*
X54000000Y-167825000D02*
X56000000Y-167825000D01*
X56000000Y-167825000D02*
X58000000Y-169075000D01*
X57750000Y-167825000D02*
X60250000Y-167825000D01*
X62870000Y-160115000D02*
X52710000Y-160115000D01*
X62870000Y-161385000D02*
X62870000Y-153765000D01*
X62870000Y-153765000D02*
X52710000Y-153765000D01*
X52710000Y-153765000D02*
X52710000Y-161385000D01*
X52710000Y-161385000D02*
X62870000Y-161385000D01*
X54890000Y-182965000D02*
X54610000Y-182965000D01*
X54610000Y-182965000D02*
X54610000Y-181365000D01*
X54610000Y-181365000D02*
X53690000Y-181365000D01*
X53690000Y-181365000D02*
X53690000Y-189185000D01*
X53690000Y-189185000D02*
X61810000Y-189185000D01*
X61810000Y-189185000D02*
X61810000Y-181365000D01*
X61810000Y-181365000D02*
X60890000Y-181365000D01*
X60890000Y-181365000D02*
X60890000Y-182965000D01*
X60890000Y-182965000D02*
X60610000Y-182965000D01*
X56250000Y-189185000D02*
X56250000Y-184825000D01*
X56250000Y-184825000D02*
X59250000Y-184825000D01*
X59250000Y-184825000D02*
X59250000Y-189185000D01*
X53690000Y-182965000D02*
X54610000Y-182965000D01*
X61810000Y-182965000D02*
X60890000Y-182965000D01*
X54450000Y-185325000D02*
X54450000Y-186925000D01*
X54450000Y-186925000D02*
X55450000Y-186925000D01*
X55450000Y-186925000D02*
X55450000Y-185325000D01*
X55450000Y-185325000D02*
X54450000Y-185325000D01*
X61050000Y-185325000D02*
X61050000Y-186925000D01*
X61050000Y-186925000D02*
X60050000Y-186925000D01*
X60050000Y-186925000D02*
X60050000Y-185325000D01*
X60050000Y-185325000D02*
X61050000Y-185325000D01*
X55450000Y-186925000D02*
X55450000Y-189185000D01*
X54950000Y-186925000D02*
X54950000Y-189185000D01*
X54890000Y-182965000D02*
X54890000Y-181750000D01*
X68185000Y-161860000D02*
X78345000Y-161860000D01*
X68185000Y-154240000D02*
X68185000Y-161860000D01*
X78345000Y-154240000D02*
X68185000Y-154240000D01*
X78345000Y-161860000D02*
X78345000Y-154240000D01*
X78345000Y-160590000D02*
X68185000Y-160590000D01*
X70365000Y-183190000D02*
X70365000Y-181975000D01*
X70425000Y-187150000D02*
X70425000Y-189410000D01*
X70925000Y-187150000D02*
X70925000Y-189410000D01*
X75525000Y-185550000D02*
X76525000Y-185550000D01*
X75525000Y-187150000D02*
X75525000Y-185550000D01*
X76525000Y-187150000D02*
X75525000Y-187150000D01*
X76525000Y-185550000D02*
X76525000Y-187150000D01*
X70925000Y-185550000D02*
X69925000Y-185550000D01*
X70925000Y-187150000D02*
X70925000Y-185550000D01*
X69925000Y-187150000D02*
X70925000Y-187150000D01*
X69925000Y-185550000D02*
X69925000Y-187150000D01*
X77285000Y-183190000D02*
X76365000Y-183190000D01*
X69165000Y-183190000D02*
X70085000Y-183190000D01*
X74725000Y-185050000D02*
X74725000Y-189410000D01*
X71725000Y-185050000D02*
X74725000Y-185050000D01*
X71725000Y-189410000D02*
X71725000Y-185050000D01*
X76365000Y-183190000D02*
X76085000Y-183190000D01*
X76365000Y-181590000D02*
X76365000Y-183190000D01*
X77285000Y-181590000D02*
X76365000Y-181590000D01*
X77285000Y-189410000D02*
X77285000Y-181590000D01*
X69165000Y-189410000D02*
X77285000Y-189410000D01*
X69165000Y-181590000D02*
X69165000Y-189410000D01*
X70085000Y-181590000D02*
X69165000Y-181590000D01*
X70085000Y-183190000D02*
X70085000Y-181590000D01*
X70365000Y-183190000D02*
X70085000Y-183190000D01*
X27389400Y-173634400D02*
X27389400Y-174294400D01*
X25659400Y-173634400D02*
X27389400Y-173634400D01*
X23089400Y-181254400D02*
X23299400Y-181254400D01*
X23089400Y-173634400D02*
X23299400Y-173634400D01*
X25659400Y-181254400D02*
X27389400Y-181254400D01*
X27389400Y-181254400D02*
X27389400Y-180604400D01*
X28089400Y-175684400D02*
X28089400Y-176134400D01*
X28089400Y-175684400D02*
X27699400Y-175684400D01*
X50284600Y-191828800D02*
X49734600Y-192328800D01*
X50284600Y-192828800D02*
X50284600Y-191828800D01*
X49734600Y-192328800D02*
X50284600Y-192828800D01*
D11*
X37434600Y-198128800D02*
X37434600Y-190378800D01*
X37434600Y-186028800D02*
X37434600Y-183628800D01*
X37434600Y-183628800D02*
X49234600Y-183628800D01*
X49234600Y-183628800D02*
X49234600Y-183728800D01*
X49234600Y-186328800D02*
X49234600Y-190078800D01*
X49234600Y-194578800D02*
X49234600Y-198128800D01*
X49234600Y-198128800D02*
X37434600Y-198128800D01*
X40534600Y-198128800D02*
X40534600Y-201728800D01*
X40534600Y-201728800D02*
X46734600Y-201728800D01*
X46734600Y-201728800D02*
X46734600Y-198128800D01*
D10*
X28725400Y-173005933D02*
X28725400Y-173348467D01*
X29745400Y-173005933D02*
X29745400Y-173348467D01*
X45437000Y-151625000D02*
X45437000Y-152840000D01*
X45377000Y-147665000D02*
X45377000Y-145405000D01*
X44877000Y-147665000D02*
X44877000Y-145405000D01*
X40277000Y-149265000D02*
X39277000Y-149265000D01*
X40277000Y-147665000D02*
X40277000Y-149265000D01*
X39277000Y-147665000D02*
X40277000Y-147665000D01*
X39277000Y-149265000D02*
X39277000Y-147665000D01*
X44877000Y-149265000D02*
X45877000Y-149265000D01*
X44877000Y-147665000D02*
X44877000Y-149265000D01*
X45877000Y-147665000D02*
X44877000Y-147665000D01*
X45877000Y-149265000D02*
X45877000Y-147665000D01*
X38517000Y-151625000D02*
X39437000Y-151625000D01*
X46637000Y-151625000D02*
X45717000Y-151625000D01*
X41077000Y-149765000D02*
X41077000Y-145405000D01*
X44077000Y-149765000D02*
X41077000Y-149765000D01*
X44077000Y-145405000D02*
X44077000Y-149765000D01*
X39437000Y-151625000D02*
X39717000Y-151625000D01*
X39437000Y-153225000D02*
X39437000Y-151625000D01*
X38517000Y-153225000D02*
X39437000Y-153225000D01*
X38517000Y-145405000D02*
X38517000Y-153225000D01*
X46637000Y-145405000D02*
X38517000Y-145405000D01*
X46637000Y-153225000D02*
X46637000Y-145405000D01*
X45717000Y-153225000D02*
X46637000Y-153225000D01*
X45717000Y-151625000D02*
X45717000Y-153225000D01*
X45437000Y-151625000D02*
X45717000Y-151625000D01*
X36356500Y-151625000D02*
X36356500Y-152840000D01*
X36296500Y-147665000D02*
X36296500Y-145405000D01*
X35796500Y-147665000D02*
X35796500Y-145405000D01*
X31196500Y-149265000D02*
X30196500Y-149265000D01*
X31196500Y-147665000D02*
X31196500Y-149265000D01*
X30196500Y-147665000D02*
X31196500Y-147665000D01*
X30196500Y-149265000D02*
X30196500Y-147665000D01*
X35796500Y-149265000D02*
X36796500Y-149265000D01*
X35796500Y-147665000D02*
X35796500Y-149265000D01*
X36796500Y-147665000D02*
X35796500Y-147665000D01*
X36796500Y-149265000D02*
X36796500Y-147665000D01*
X29436500Y-151625000D02*
X30356500Y-151625000D01*
X37556500Y-151625000D02*
X36636500Y-151625000D01*
X31996500Y-149765000D02*
X31996500Y-145405000D01*
X34996500Y-149765000D02*
X31996500Y-149765000D01*
X34996500Y-145405000D02*
X34996500Y-149765000D01*
X30356500Y-151625000D02*
X30636500Y-151625000D01*
X30356500Y-153225000D02*
X30356500Y-151625000D01*
X29436500Y-153225000D02*
X30356500Y-153225000D01*
X29436500Y-145405000D02*
X29436500Y-153225000D01*
X37556500Y-145405000D02*
X29436500Y-145405000D01*
X37556500Y-153225000D02*
X37556500Y-145405000D01*
X36636500Y-153225000D02*
X37556500Y-153225000D01*
X36636500Y-151625000D02*
X36636500Y-153225000D01*
X36356500Y-151625000D02*
X36636500Y-151625000D01*
X26730000Y-170240000D02*
X25400000Y-170240000D01*
X26730000Y-168910000D02*
X26730000Y-170240000D01*
X26730000Y-167640000D02*
X24070000Y-167640000D01*
X24070000Y-167640000D02*
X24070000Y-165040000D01*
X26730000Y-167640000D02*
X26730000Y-165040000D01*
X26730000Y-165040000D02*
X24070000Y-165040000D01*
X42310233Y-155196000D02*
X42652767Y-155196000D01*
X42310233Y-154176000D02*
X42652767Y-154176000D01*
X28577000Y-148443767D02*
X28577000Y-148101233D01*
X27557000Y-148443767D02*
X27557000Y-148101233D01*
X28450000Y-155111267D02*
X28450000Y-154768733D01*
X27430000Y-155111267D02*
X27430000Y-154768733D01*
X23100000Y-151170000D02*
X23100000Y-150950000D01*
X23100000Y-151170000D02*
G75*
G03X23100000Y-156370000I1100000J-2600000D01*
G01*
X26760000Y-156750000D02*
X26760000Y-153670000D01*
X23100000Y-156830000D02*
X23100000Y-156370000D01*
X23100000Y-156830000D02*
X24300000Y-156830000D01*
X43478267Y-177353500D02*
X43135733Y-177353500D01*
X43478267Y-178373500D02*
X43135733Y-178373500D01*
X32192500Y-180168733D02*
X32192500Y-180511267D01*
X33212500Y-180168733D02*
X33212500Y-180511267D01*
X37578733Y-182860000D02*
X37921267Y-182860000D01*
X37578733Y-181840000D02*
X37921267Y-181840000D01*
X31984767Y-173353000D02*
X31642233Y-173353000D01*
X31984767Y-174373000D02*
X31642233Y-174373000D01*
X31984767Y-171702000D02*
X31642233Y-171702000D01*
X31984767Y-172722000D02*
X31642233Y-172722000D01*
X43008733Y-176786000D02*
X43351267Y-176786000D01*
X43008733Y-175766000D02*
X43351267Y-175766000D01*
X44024733Y-174220600D02*
X44367267Y-174220600D01*
X44024733Y-173200600D02*
X44367267Y-173200600D01*
X32256000Y-176612733D02*
X32256000Y-176955267D01*
X33276000Y-176612733D02*
X33276000Y-176955267D01*
X30478000Y-176612733D02*
X30478000Y-176955267D01*
X31498000Y-176612733D02*
X31498000Y-176955267D01*
X37338000Y-171841000D02*
X33888000Y-171841000D01*
X37338000Y-171841000D02*
X39288000Y-171841000D01*
X37338000Y-180711000D02*
X35388000Y-180711000D01*
X37338000Y-180711000D02*
X39288000Y-180711000D01*
X29716000Y-180295733D02*
X29716000Y-180638267D01*
X30736000Y-180295733D02*
X30736000Y-180638267D01*
X32260000Y-159710000D02*
X32260000Y-160640000D01*
X32260000Y-162870000D02*
X32260000Y-161940000D01*
X32260000Y-162870000D02*
X34420000Y-162870000D01*
X32260000Y-159710000D02*
X33720000Y-159710000D01*
X29970000Y-162870000D02*
X29970000Y-161940000D01*
X29970000Y-159710000D02*
X29970000Y-160640000D01*
X29970000Y-159710000D02*
X27810000Y-159710000D01*
X29970000Y-162870000D02*
X28510000Y-162870000D01*
X36644800Y-191828800D02*
X36094800Y-192328800D01*
X36644800Y-192828800D02*
X36644800Y-191828800D01*
X36094800Y-192328800D02*
X36644800Y-192828800D01*
D11*
X23794800Y-198128800D02*
X23794800Y-190378800D01*
X23794800Y-186028800D02*
X23794800Y-183628800D01*
X23794800Y-183628800D02*
X35594800Y-183628800D01*
X35594800Y-183628800D02*
X35594800Y-183728800D01*
X35594800Y-186328800D02*
X35594800Y-190078800D01*
X35594800Y-194578800D02*
X35594800Y-198128800D01*
X35594800Y-198128800D02*
X23794800Y-198128800D01*
X26894800Y-198128800D02*
X26894800Y-201728800D01*
X26894800Y-201728800D02*
X33094800Y-201728800D01*
X33094800Y-201728800D02*
X33094800Y-198128800D01*
D10*
X35820000Y-159140000D02*
X41520000Y-159140000D01*
X35820000Y-163440000D02*
X41520000Y-163440000D01*
X35820000Y-159140000D02*
X35820000Y-163440000D01*
X40380000Y-158360000D02*
X34680000Y-158360000D01*
X40380000Y-154060000D02*
X34680000Y-154060000D01*
X40380000Y-158360000D02*
X40380000Y-154060000D01*
X41112631Y-171120000D02*
X42707369Y-171120000D01*
X41112631Y-166700000D02*
X42707369Y-166700000D01*
X41738733Y-165610000D02*
X42081267Y-165610000D01*
X41738733Y-164590000D02*
X42081267Y-164590000D01*
X31748000Y-157562733D02*
X31748000Y-157905267D01*
X32768000Y-157562733D02*
X32768000Y-157905267D01*
X29038733Y-165610000D02*
X29381267Y-165610000D01*
X29038733Y-164590000D02*
X29381267Y-164590000D01*
X30952631Y-171120000D02*
X32547369Y-171120000D01*
X30952631Y-166700000D02*
X32547369Y-166700000D01*
D11*
X72536904Y-166852380D02*
X72536904Y-165852380D01*
X73108333Y-166852380D02*
X72679761Y-166280952D01*
X73108333Y-165852380D02*
X72536904Y-166423809D01*
X74060714Y-166852380D02*
X73489285Y-166852380D01*
X73775000Y-166852380D02*
X73775000Y-165852380D01*
X73679761Y-165995238D01*
X73584523Y-166090476D01*
X73489285Y-166138095D01*
X56611904Y-166052380D02*
X56611904Y-165052380D01*
X57183333Y-166052380D02*
X56754761Y-165480952D01*
X57183333Y-165052380D02*
X56611904Y-165623809D01*
X57564285Y-165147619D02*
X57611904Y-165100000D01*
X57707142Y-165052380D01*
X57945238Y-165052380D01*
X58040476Y-165100000D01*
X58088095Y-165147619D01*
X58135714Y-165242857D01*
X58135714Y-165338095D01*
X58088095Y-165480952D01*
X57516666Y-166052380D01*
X58135714Y-166052380D01*
X57115476Y-154502380D02*
X57115476Y-155216666D01*
X57067857Y-155359523D01*
X56972619Y-155454761D01*
X56829761Y-155502380D01*
X56734523Y-155502380D01*
X58115476Y-155502380D02*
X57544047Y-155502380D01*
X57829761Y-155502380D02*
X57829761Y-154502380D01*
X57734523Y-154645238D01*
X57639285Y-154740476D01*
X57544047Y-154788095D01*
X58734523Y-154502380D02*
X58829761Y-154502380D01*
X58925000Y-154550000D01*
X58972619Y-154597619D01*
X59020238Y-154692857D01*
X59067857Y-154883333D01*
X59067857Y-155121428D01*
X59020238Y-155311904D01*
X58972619Y-155407142D01*
X58925000Y-155454761D01*
X58829761Y-155502380D01*
X58734523Y-155502380D01*
X58639285Y-155454761D01*
X58591666Y-155407142D01*
X58544047Y-155311904D01*
X58496428Y-155121428D01*
X58496428Y-154883333D01*
X58544047Y-154692857D01*
X58591666Y-154597619D01*
X58639285Y-154550000D01*
X58734523Y-154502380D01*
X57266666Y-186127380D02*
X57266666Y-186841666D01*
X57219047Y-186984523D01*
X57123809Y-187079761D01*
X56980952Y-187127380D01*
X56885714Y-187127380D01*
X57790476Y-187127380D02*
X57980952Y-187127380D01*
X58076190Y-187079761D01*
X58123809Y-187032142D01*
X58219047Y-186889285D01*
X58266666Y-186698809D01*
X58266666Y-186317857D01*
X58219047Y-186222619D01*
X58171428Y-186175000D01*
X58076190Y-186127380D01*
X57885714Y-186127380D01*
X57790476Y-186175000D01*
X57742857Y-186222619D01*
X57695238Y-186317857D01*
X57695238Y-186555952D01*
X57742857Y-186651190D01*
X57790476Y-186698809D01*
X57885714Y-186746428D01*
X58076190Y-186746428D01*
X58171428Y-186698809D01*
X58219047Y-186651190D01*
X58266666Y-186555952D01*
X73066666Y-154752380D02*
X73066666Y-155466666D01*
X73019047Y-155609523D01*
X72923809Y-155704761D01*
X72780952Y-155752380D01*
X72685714Y-155752380D01*
X73685714Y-155180952D02*
X73590476Y-155133333D01*
X73542857Y-155085714D01*
X73495238Y-154990476D01*
X73495238Y-154942857D01*
X73542857Y-154847619D01*
X73590476Y-154800000D01*
X73685714Y-154752380D01*
X73876190Y-154752380D01*
X73971428Y-154800000D01*
X74019047Y-154847619D01*
X74066666Y-154942857D01*
X74066666Y-154990476D01*
X74019047Y-155085714D01*
X73971428Y-155133333D01*
X73876190Y-155180952D01*
X73685714Y-155180952D01*
X73590476Y-155228571D01*
X73542857Y-155276190D01*
X73495238Y-155371428D01*
X73495238Y-155561904D01*
X73542857Y-155657142D01*
X73590476Y-155704761D01*
X73685714Y-155752380D01*
X73876190Y-155752380D01*
X73971428Y-155704761D01*
X74019047Y-155657142D01*
X74066666Y-155561904D01*
X74066666Y-155371428D01*
X74019047Y-155276190D01*
X73971428Y-155228571D01*
X73876190Y-155180952D01*
X72866666Y-186177380D02*
X72866666Y-186891666D01*
X72819047Y-187034523D01*
X72723809Y-187129761D01*
X72580952Y-187177380D01*
X72485714Y-187177380D01*
X73247619Y-186177380D02*
X73914285Y-186177380D01*
X73485714Y-187177380D01*
X23652380Y-179258333D02*
X24366666Y-179258333D01*
X24509523Y-179305952D01*
X24604761Y-179401190D01*
X24652380Y-179544047D01*
X24652380Y-179639285D01*
X24652380Y-178258333D02*
X24652380Y-178829761D01*
X24652380Y-178544047D02*
X23652380Y-178544047D01*
X23795238Y-178639285D01*
X23890476Y-178734523D01*
X23938095Y-178829761D01*
X43366666Y-184027380D02*
X43366666Y-184741666D01*
X43319047Y-184884523D01*
X43223809Y-184979761D01*
X43080952Y-185027380D01*
X42985714Y-185027380D01*
X43747619Y-184027380D02*
X44366666Y-184027380D01*
X44033333Y-184408333D01*
X44176190Y-184408333D01*
X44271428Y-184455952D01*
X44319047Y-184503571D01*
X44366666Y-184598809D01*
X44366666Y-184836904D01*
X44319047Y-184932142D01*
X44271428Y-184979761D01*
X44176190Y-185027380D01*
X43890476Y-185027380D01*
X43795238Y-184979761D01*
X43747619Y-184932142D01*
X28232142Y-173042857D02*
X28279761Y-173090476D01*
X28327380Y-173233333D01*
X28327380Y-173328571D01*
X28279761Y-173471428D01*
X28184523Y-173566666D01*
X28089285Y-173614285D01*
X27898809Y-173661904D01*
X27755952Y-173661904D01*
X27565476Y-173614285D01*
X27470238Y-173566666D01*
X27375000Y-173471428D01*
X27327380Y-173328571D01*
X27327380Y-173233333D01*
X27375000Y-173090476D01*
X27422619Y-173042857D01*
X28327380Y-172090476D02*
X28327380Y-172661904D01*
X28327380Y-172376190D02*
X27327380Y-172376190D01*
X27470238Y-172471428D01*
X27565476Y-172566666D01*
X27613095Y-172661904D01*
X28327380Y-171614285D02*
X28327380Y-171423809D01*
X28279761Y-171328571D01*
X28232142Y-171280952D01*
X28089285Y-171185714D01*
X27898809Y-171138095D01*
X27517857Y-171138095D01*
X27422619Y-171185714D01*
X27375000Y-171233333D01*
X27327380Y-171328571D01*
X27327380Y-171519047D01*
X27375000Y-171614285D01*
X27422619Y-171661904D01*
X27517857Y-171709523D01*
X27755952Y-171709523D01*
X27851190Y-171661904D01*
X27898809Y-171614285D01*
X27946428Y-171519047D01*
X27946428Y-171328571D01*
X27898809Y-171233333D01*
X27851190Y-171185714D01*
X27755952Y-171138095D01*
X42366666Y-146202380D02*
X42366666Y-146916666D01*
X42319047Y-147059523D01*
X42223809Y-147154761D01*
X42080952Y-147202380D01*
X41985714Y-147202380D01*
X43271428Y-146202380D02*
X43080952Y-146202380D01*
X42985714Y-146250000D01*
X42938095Y-146297619D01*
X42842857Y-146440476D01*
X42795238Y-146630952D01*
X42795238Y-147011904D01*
X42842857Y-147107142D01*
X42890476Y-147154761D01*
X42985714Y-147202380D01*
X43176190Y-147202380D01*
X43271428Y-147154761D01*
X43319047Y-147107142D01*
X43366666Y-147011904D01*
X43366666Y-146773809D01*
X43319047Y-146678571D01*
X43271428Y-146630952D01*
X43176190Y-146583333D01*
X42985714Y-146583333D01*
X42890476Y-146630952D01*
X42842857Y-146678571D01*
X42795238Y-146773809D01*
X33216666Y-146602380D02*
X33216666Y-147316666D01*
X33169047Y-147459523D01*
X33073809Y-147554761D01*
X32930952Y-147602380D01*
X32835714Y-147602380D01*
X34169047Y-146602380D02*
X33692857Y-146602380D01*
X33645238Y-147078571D01*
X33692857Y-147030952D01*
X33788095Y-146983333D01*
X34026190Y-146983333D01*
X34121428Y-147030952D01*
X34169047Y-147078571D01*
X34216666Y-147173809D01*
X34216666Y-147411904D01*
X34169047Y-147507142D01*
X34121428Y-147554761D01*
X34026190Y-147602380D01*
X33788095Y-147602380D01*
X33692857Y-147554761D01*
X33645238Y-147507142D01*
X24916666Y-163477380D02*
X24916666Y-164191666D01*
X24869047Y-164334523D01*
X24773809Y-164429761D01*
X24630952Y-164477380D01*
X24535714Y-164477380D01*
X25821428Y-163810714D02*
X25821428Y-164477380D01*
X25583333Y-163429761D02*
X25345238Y-164144047D01*
X25964285Y-164144047D01*
X42732142Y-156507142D02*
X42684523Y-156554761D01*
X42541666Y-156602380D01*
X42446428Y-156602380D01*
X42303571Y-156554761D01*
X42208333Y-156459523D01*
X42160714Y-156364285D01*
X42113095Y-156173809D01*
X42113095Y-156030952D01*
X42160714Y-155840476D01*
X42208333Y-155745238D01*
X42303571Y-155650000D01*
X42446428Y-155602380D01*
X42541666Y-155602380D01*
X42684523Y-155650000D01*
X42732142Y-155697619D01*
X43684523Y-156602380D02*
X43113095Y-156602380D01*
X43398809Y-156602380D02*
X43398809Y-155602380D01*
X43303571Y-155745238D01*
X43208333Y-155840476D01*
X43113095Y-155888095D01*
X44255952Y-156030952D02*
X44160714Y-155983333D01*
X44113095Y-155935714D01*
X44065476Y-155840476D01*
X44065476Y-155792857D01*
X44113095Y-155697619D01*
X44160714Y-155650000D01*
X44255952Y-155602380D01*
X44446428Y-155602380D01*
X44541666Y-155650000D01*
X44589285Y-155697619D01*
X44636904Y-155792857D01*
X44636904Y-155840476D01*
X44589285Y-155935714D01*
X44541666Y-155983333D01*
X44446428Y-156030952D01*
X44255952Y-156030952D01*
X44160714Y-156078571D01*
X44113095Y-156126190D01*
X44065476Y-156221428D01*
X44065476Y-156411904D01*
X44113095Y-156507142D01*
X44160714Y-156554761D01*
X44255952Y-156602380D01*
X44446428Y-156602380D01*
X44541666Y-156554761D01*
X44589285Y-156507142D01*
X44636904Y-156411904D01*
X44636904Y-156221428D01*
X44589285Y-156126190D01*
X44541666Y-156078571D01*
X44446428Y-156030952D01*
X26757142Y-146257142D02*
X26709523Y-146304761D01*
X26566666Y-146352380D01*
X26471428Y-146352380D01*
X26328571Y-146304761D01*
X26233333Y-146209523D01*
X26185714Y-146114285D01*
X26138095Y-145923809D01*
X26138095Y-145780952D01*
X26185714Y-145590476D01*
X26233333Y-145495238D01*
X26328571Y-145400000D01*
X26471428Y-145352380D01*
X26566666Y-145352380D01*
X26709523Y-145400000D01*
X26757142Y-145447619D01*
X27709523Y-146352380D02*
X27138095Y-146352380D01*
X27423809Y-146352380D02*
X27423809Y-145352380D01*
X27328571Y-145495238D01*
X27233333Y-145590476D01*
X27138095Y-145638095D01*
X28042857Y-145352380D02*
X28709523Y-145352380D01*
X28280952Y-146352380D01*
X29567142Y-155582857D02*
X29614761Y-155630476D01*
X29662380Y-155773333D01*
X29662380Y-155868571D01*
X29614761Y-156011428D01*
X29519523Y-156106666D01*
X29424285Y-156154285D01*
X29233809Y-156201904D01*
X29090952Y-156201904D01*
X28900476Y-156154285D01*
X28805238Y-156106666D01*
X28710000Y-156011428D01*
X28662380Y-155868571D01*
X28662380Y-155773333D01*
X28710000Y-155630476D01*
X28757619Y-155582857D01*
X29662380Y-154630476D02*
X29662380Y-155201904D01*
X29662380Y-154916190D02*
X28662380Y-154916190D01*
X28805238Y-155011428D01*
X28900476Y-155106666D01*
X28948095Y-155201904D01*
X28662380Y-153773333D02*
X28662380Y-153963809D01*
X28710000Y-154059047D01*
X28757619Y-154106666D01*
X28900476Y-154201904D01*
X29090952Y-154249523D01*
X29471904Y-154249523D01*
X29567142Y-154201904D01*
X29614761Y-154154285D01*
X29662380Y-154059047D01*
X29662380Y-153868571D01*
X29614761Y-153773333D01*
X29567142Y-153725714D01*
X29471904Y-153678095D01*
X29233809Y-153678095D01*
X29138571Y-153725714D01*
X29090952Y-153773333D01*
X29043333Y-153868571D01*
X29043333Y-154059047D01*
X29090952Y-154154285D01*
X29138571Y-154201904D01*
X29233809Y-154249523D01*
X27102380Y-151891904D02*
X27911904Y-151891904D01*
X28007142Y-151844285D01*
X28054761Y-151796666D01*
X28102380Y-151701428D01*
X28102380Y-151510952D01*
X28054761Y-151415714D01*
X28007142Y-151368095D01*
X27911904Y-151320476D01*
X27102380Y-151320476D01*
X27435714Y-150415714D02*
X28102380Y-150415714D01*
X27054761Y-150653809D02*
X27769047Y-150891904D01*
X27769047Y-150272857D01*
X47207142Y-178377380D02*
X46873809Y-177901190D01*
X46635714Y-178377380D02*
X46635714Y-177377380D01*
X47016666Y-177377380D01*
X47111904Y-177425000D01*
X47159523Y-177472619D01*
X47207142Y-177567857D01*
X47207142Y-177710714D01*
X47159523Y-177805952D01*
X47111904Y-177853571D01*
X47016666Y-177901190D01*
X46635714Y-177901190D01*
X48159523Y-178377380D02*
X47588095Y-178377380D01*
X47873809Y-178377380D02*
X47873809Y-177377380D01*
X47778571Y-177520238D01*
X47683333Y-177615476D01*
X47588095Y-177663095D01*
X48778571Y-177377380D02*
X48873809Y-177377380D01*
X48969047Y-177425000D01*
X49016666Y-177472619D01*
X49064285Y-177567857D01*
X49111904Y-177758333D01*
X49111904Y-177996428D01*
X49064285Y-178186904D01*
X49016666Y-178282142D01*
X48969047Y-178329761D01*
X48873809Y-178377380D01*
X48778571Y-178377380D01*
X48683333Y-178329761D01*
X48635714Y-178282142D01*
X48588095Y-178186904D01*
X48540476Y-177996428D01*
X48540476Y-177758333D01*
X48588095Y-177567857D01*
X48635714Y-177472619D01*
X48683333Y-177425000D01*
X48778571Y-177377380D01*
X32533333Y-183177380D02*
X32200000Y-182701190D01*
X31961904Y-183177380D02*
X31961904Y-182177380D01*
X32342857Y-182177380D01*
X32438095Y-182225000D01*
X32485714Y-182272619D01*
X32533333Y-182367857D01*
X32533333Y-182510714D01*
X32485714Y-182605952D01*
X32438095Y-182653571D01*
X32342857Y-182701190D01*
X31961904Y-182701190D01*
X33104761Y-182605952D02*
X33009523Y-182558333D01*
X32961904Y-182510714D01*
X32914285Y-182415476D01*
X32914285Y-182367857D01*
X32961904Y-182272619D01*
X33009523Y-182225000D01*
X33104761Y-182177380D01*
X33295238Y-182177380D01*
X33390476Y-182225000D01*
X33438095Y-182272619D01*
X33485714Y-182367857D01*
X33485714Y-182415476D01*
X33438095Y-182510714D01*
X33390476Y-182558333D01*
X33295238Y-182605952D01*
X33104761Y-182605952D01*
X33009523Y-182653571D01*
X32961904Y-182701190D01*
X32914285Y-182796428D01*
X32914285Y-182986904D01*
X32961904Y-183082142D01*
X33009523Y-183129761D01*
X33104761Y-183177380D01*
X33295238Y-183177380D01*
X33390476Y-183129761D01*
X33438095Y-183082142D01*
X33485714Y-182986904D01*
X33485714Y-182796428D01*
X33438095Y-182701190D01*
X33390476Y-182653571D01*
X33295238Y-182605952D01*
X40188733Y-182905380D02*
X39855400Y-182429190D01*
X39617304Y-182905380D02*
X39617304Y-181905380D01*
X39998257Y-181905380D01*
X40093495Y-181953000D01*
X40141114Y-182000619D01*
X40188733Y-182095857D01*
X40188733Y-182238714D01*
X40141114Y-182333952D01*
X40093495Y-182381571D01*
X39998257Y-182429190D01*
X39617304Y-182429190D01*
X40522066Y-181905380D02*
X41188733Y-181905380D01*
X40760161Y-182905380D01*
X31646833Y-170627380D02*
X31313500Y-170151190D01*
X31075404Y-170627380D02*
X31075404Y-169627380D01*
X31456357Y-169627380D01*
X31551595Y-169675000D01*
X31599214Y-169722619D01*
X31646833Y-169817857D01*
X31646833Y-169960714D01*
X31599214Y-170055952D01*
X31551595Y-170103571D01*
X31456357Y-170151190D01*
X31075404Y-170151190D01*
X32503976Y-169627380D02*
X32313500Y-169627380D01*
X32218261Y-169675000D01*
X32170642Y-169722619D01*
X32075404Y-169865476D01*
X32027785Y-170055952D01*
X32027785Y-170436904D01*
X32075404Y-170532142D01*
X32123023Y-170579761D01*
X32218261Y-170627380D01*
X32408738Y-170627380D01*
X32503976Y-170579761D01*
X32551595Y-170532142D01*
X32599214Y-170436904D01*
X32599214Y-170198809D01*
X32551595Y-170103571D01*
X32503976Y-170055952D01*
X32408738Y-170008333D01*
X32218261Y-170008333D01*
X32123023Y-170055952D01*
X32075404Y-170103571D01*
X32027785Y-170198809D01*
X31646833Y-169027380D02*
X31313500Y-168551190D01*
X31075404Y-169027380D02*
X31075404Y-168027380D01*
X31456357Y-168027380D01*
X31551595Y-168075000D01*
X31599214Y-168122619D01*
X31646833Y-168217857D01*
X31646833Y-168360714D01*
X31599214Y-168455952D01*
X31551595Y-168503571D01*
X31456357Y-168551190D01*
X31075404Y-168551190D01*
X32551595Y-168027380D02*
X32075404Y-168027380D01*
X32027785Y-168503571D01*
X32075404Y-168455952D01*
X32170642Y-168408333D01*
X32408738Y-168408333D01*
X32503976Y-168455952D01*
X32551595Y-168503571D01*
X32599214Y-168598809D01*
X32599214Y-168836904D01*
X32551595Y-168932142D01*
X32503976Y-168979761D01*
X32408738Y-169027380D01*
X32170642Y-169027380D01*
X32075404Y-168979761D01*
X32027785Y-168932142D01*
X47182142Y-176732142D02*
X47134523Y-176779761D01*
X46991666Y-176827380D01*
X46896428Y-176827380D01*
X46753571Y-176779761D01*
X46658333Y-176684523D01*
X46610714Y-176589285D01*
X46563095Y-176398809D01*
X46563095Y-176255952D01*
X46610714Y-176065476D01*
X46658333Y-175970238D01*
X46753571Y-175875000D01*
X46896428Y-175827380D01*
X46991666Y-175827380D01*
X47134523Y-175875000D01*
X47182142Y-175922619D01*
X48134523Y-176827380D02*
X47563095Y-176827380D01*
X47848809Y-176827380D02*
X47848809Y-175827380D01*
X47753571Y-175970238D01*
X47658333Y-176065476D01*
X47563095Y-176113095D01*
X49086904Y-176827380D02*
X48515476Y-176827380D01*
X48801190Y-176827380D02*
X48801190Y-175827380D01*
X48705952Y-175970238D01*
X48610714Y-176065476D01*
X48515476Y-176113095D01*
X46682142Y-174082142D02*
X46634523Y-174129761D01*
X46491666Y-174177380D01*
X46396428Y-174177380D01*
X46253571Y-174129761D01*
X46158333Y-174034523D01*
X46110714Y-173939285D01*
X46063095Y-173748809D01*
X46063095Y-173605952D01*
X46110714Y-173415476D01*
X46158333Y-173320238D01*
X46253571Y-173225000D01*
X46396428Y-173177380D01*
X46491666Y-173177380D01*
X46634523Y-173225000D01*
X46682142Y-173272619D01*
X47634523Y-174177380D02*
X47063095Y-174177380D01*
X47348809Y-174177380D02*
X47348809Y-173177380D01*
X47253571Y-173320238D01*
X47158333Y-173415476D01*
X47063095Y-173463095D01*
X48253571Y-173177380D02*
X48348809Y-173177380D01*
X48444047Y-173225000D01*
X48491666Y-173272619D01*
X48539285Y-173367857D01*
X48586904Y-173558333D01*
X48586904Y-173796428D01*
X48539285Y-173986904D01*
X48491666Y-174082142D01*
X48444047Y-174129761D01*
X48348809Y-174177380D01*
X48253571Y-174177380D01*
X48158333Y-174129761D01*
X48110714Y-174082142D01*
X48063095Y-173986904D01*
X48015476Y-173796428D01*
X48015476Y-173558333D01*
X48063095Y-173367857D01*
X48110714Y-173272619D01*
X48158333Y-173225000D01*
X48253571Y-173177380D01*
X25682142Y-177116666D02*
X25729761Y-177164285D01*
X25777380Y-177307142D01*
X25777380Y-177402380D01*
X25729761Y-177545238D01*
X25634523Y-177640476D01*
X25539285Y-177688095D01*
X25348809Y-177735714D01*
X25205952Y-177735714D01*
X25015476Y-177688095D01*
X24920238Y-177640476D01*
X24825000Y-177545238D01*
X24777380Y-177402380D01*
X24777380Y-177307142D01*
X24825000Y-177164285D01*
X24872619Y-177116666D01*
X25777380Y-176640476D02*
X25777380Y-176450000D01*
X25729761Y-176354761D01*
X25682142Y-176307142D01*
X25539285Y-176211904D01*
X25348809Y-176164285D01*
X24967857Y-176164285D01*
X24872619Y-176211904D01*
X24825000Y-176259523D01*
X24777380Y-176354761D01*
X24777380Y-176545238D01*
X24825000Y-176640476D01*
X24872619Y-176688095D01*
X24967857Y-176735714D01*
X25205952Y-176735714D01*
X25301190Y-176688095D01*
X25348809Y-176640476D01*
X25396428Y-176545238D01*
X25396428Y-176354761D01*
X25348809Y-176259523D01*
X25301190Y-176211904D01*
X25205952Y-176164285D01*
X24232142Y-177066666D02*
X24279761Y-177114285D01*
X24327380Y-177257142D01*
X24327380Y-177352380D01*
X24279761Y-177495238D01*
X24184523Y-177590476D01*
X24089285Y-177638095D01*
X23898809Y-177685714D01*
X23755952Y-177685714D01*
X23565476Y-177638095D01*
X23470238Y-177590476D01*
X23375000Y-177495238D01*
X23327380Y-177352380D01*
X23327380Y-177257142D01*
X23375000Y-177114285D01*
X23422619Y-177066666D01*
X23755952Y-176495238D02*
X23708333Y-176590476D01*
X23660714Y-176638095D01*
X23565476Y-176685714D01*
X23517857Y-176685714D01*
X23422619Y-176638095D01*
X23375000Y-176590476D01*
X23327380Y-176495238D01*
X23327380Y-176304761D01*
X23375000Y-176209523D01*
X23422619Y-176161904D01*
X23517857Y-176114285D01*
X23565476Y-176114285D01*
X23660714Y-176161904D01*
X23708333Y-176209523D01*
X23755952Y-176304761D01*
X23755952Y-176495238D01*
X23803571Y-176590476D01*
X23851190Y-176638095D01*
X23946428Y-176685714D01*
X24136904Y-176685714D01*
X24232142Y-176638095D01*
X24279761Y-176590476D01*
X24327380Y-176495238D01*
X24327380Y-176304761D01*
X24279761Y-176209523D01*
X24232142Y-176161904D01*
X24136904Y-176114285D01*
X23946428Y-176114285D01*
X23851190Y-176161904D01*
X23803571Y-176209523D01*
X23755952Y-176304761D01*
X36563095Y-173302380D02*
X36563095Y-174111904D01*
X36610714Y-174207142D01*
X36658333Y-174254761D01*
X36753571Y-174302380D01*
X36944047Y-174302380D01*
X37039285Y-174254761D01*
X37086904Y-174207142D01*
X37134523Y-174111904D01*
X37134523Y-173302380D01*
X37563095Y-173397619D02*
X37610714Y-173350000D01*
X37705952Y-173302380D01*
X37944047Y-173302380D01*
X38039285Y-173350000D01*
X38086904Y-173397619D01*
X38134523Y-173492857D01*
X38134523Y-173588095D01*
X38086904Y-173730952D01*
X37515476Y-174302380D01*
X38134523Y-174302380D01*
X30058333Y-183302380D02*
X29725000Y-182826190D01*
X29486904Y-183302380D02*
X29486904Y-182302380D01*
X29867857Y-182302380D01*
X29963095Y-182350000D01*
X30010714Y-182397619D01*
X30058333Y-182492857D01*
X30058333Y-182635714D01*
X30010714Y-182730952D01*
X29963095Y-182778571D01*
X29867857Y-182826190D01*
X29486904Y-182826190D01*
X30439285Y-182397619D02*
X30486904Y-182350000D01*
X30582142Y-182302380D01*
X30820238Y-182302380D01*
X30915476Y-182350000D01*
X30963095Y-182397619D01*
X31010714Y-182492857D01*
X31010714Y-182588095D01*
X30963095Y-182730952D01*
X30391666Y-183302380D01*
X31010714Y-183302380D01*
X32924761Y-164337619D02*
X32829523Y-164290000D01*
X32734285Y-164194761D01*
X32591428Y-164051904D01*
X32496190Y-164004285D01*
X32400952Y-164004285D01*
X32448571Y-164242380D02*
X32353333Y-164194761D01*
X32258095Y-164099523D01*
X32210476Y-163909047D01*
X32210476Y-163575714D01*
X32258095Y-163385238D01*
X32353333Y-163290000D01*
X32448571Y-163242380D01*
X32639047Y-163242380D01*
X32734285Y-163290000D01*
X32829523Y-163385238D01*
X32877142Y-163575714D01*
X32877142Y-163909047D01*
X32829523Y-164099523D01*
X32734285Y-164194761D01*
X32639047Y-164242380D01*
X32448571Y-164242380D01*
X33258095Y-163337619D02*
X33305714Y-163290000D01*
X33400952Y-163242380D01*
X33639047Y-163242380D01*
X33734285Y-163290000D01*
X33781904Y-163337619D01*
X33829523Y-163432857D01*
X33829523Y-163528095D01*
X33781904Y-163670952D01*
X33210476Y-164242380D01*
X33829523Y-164242380D01*
X29114761Y-159337619D02*
X29019523Y-159290000D01*
X28924285Y-159194761D01*
X28781428Y-159051904D01*
X28686190Y-159004285D01*
X28590952Y-159004285D01*
X28638571Y-159242380D02*
X28543333Y-159194761D01*
X28448095Y-159099523D01*
X28400476Y-158909047D01*
X28400476Y-158575714D01*
X28448095Y-158385238D01*
X28543333Y-158290000D01*
X28638571Y-158242380D01*
X28829047Y-158242380D01*
X28924285Y-158290000D01*
X29019523Y-158385238D01*
X29067142Y-158575714D01*
X29067142Y-158909047D01*
X29019523Y-159099523D01*
X28924285Y-159194761D01*
X28829047Y-159242380D01*
X28638571Y-159242380D01*
X30019523Y-159242380D02*
X29448095Y-159242380D01*
X29733809Y-159242380D02*
X29733809Y-158242380D01*
X29638571Y-158385238D01*
X29543333Y-158480476D01*
X29448095Y-158528095D01*
X29491666Y-184127380D02*
X29491666Y-184841666D01*
X29444047Y-184984523D01*
X29348809Y-185079761D01*
X29205952Y-185127380D01*
X29110714Y-185127380D01*
X29920238Y-184222619D02*
X29967857Y-184175000D01*
X30063095Y-184127380D01*
X30301190Y-184127380D01*
X30396428Y-184175000D01*
X30444047Y-184222619D01*
X30491666Y-184317857D01*
X30491666Y-184413095D01*
X30444047Y-184555952D01*
X29872619Y-185127380D01*
X30491666Y-185127380D01*
X44202380Y-162238095D02*
X43202380Y-162238095D01*
X43202380Y-162000000D01*
X43250000Y-161857142D01*
X43345238Y-161761904D01*
X43440476Y-161714285D01*
X43630952Y-161666666D01*
X43773809Y-161666666D01*
X43964285Y-161714285D01*
X44059523Y-161761904D01*
X44154761Y-161857142D01*
X44202380Y-162000000D01*
X44202380Y-162238095D01*
X43297619Y-161285714D02*
X43250000Y-161238095D01*
X43202380Y-161142857D01*
X43202380Y-160904761D01*
X43250000Y-160809523D01*
X43297619Y-160761904D01*
X43392857Y-160714285D01*
X43488095Y-160714285D01*
X43630952Y-160761904D01*
X44202380Y-161333333D01*
X44202380Y-160714285D01*
X41527380Y-157438095D02*
X40527380Y-157438095D01*
X40527380Y-157200000D01*
X40575000Y-157057142D01*
X40670238Y-156961904D01*
X40765476Y-156914285D01*
X40955952Y-156866666D01*
X41098809Y-156866666D01*
X41289285Y-156914285D01*
X41384523Y-156961904D01*
X41479761Y-157057142D01*
X41527380Y-157200000D01*
X41527380Y-157438095D01*
X41527380Y-155914285D02*
X41527380Y-156485714D01*
X41527380Y-156200000D02*
X40527380Y-156200000D01*
X40670238Y-156295238D01*
X40765476Y-156390476D01*
X40813095Y-156485714D01*
X47332142Y-168941666D02*
X47379761Y-168989285D01*
X47427380Y-169132142D01*
X47427380Y-169227380D01*
X47379761Y-169370238D01*
X47284523Y-169465476D01*
X47189285Y-169513095D01*
X46998809Y-169560714D01*
X46855952Y-169560714D01*
X46665476Y-169513095D01*
X46570238Y-169465476D01*
X46475000Y-169370238D01*
X46427380Y-169227380D01*
X46427380Y-169132142D01*
X46475000Y-168989285D01*
X46522619Y-168941666D01*
X46427380Y-168608333D02*
X46427380Y-167941666D01*
X47427380Y-168370238D01*
X39158333Y-165432142D02*
X39110714Y-165479761D01*
X38967857Y-165527380D01*
X38872619Y-165527380D01*
X38729761Y-165479761D01*
X38634523Y-165384523D01*
X38586904Y-165289285D01*
X38539285Y-165098809D01*
X38539285Y-164955952D01*
X38586904Y-164765476D01*
X38634523Y-164670238D01*
X38729761Y-164575000D01*
X38872619Y-164527380D01*
X38967857Y-164527380D01*
X39110714Y-164575000D01*
X39158333Y-164622619D01*
X40015476Y-164527380D02*
X39825000Y-164527380D01*
X39729761Y-164575000D01*
X39682142Y-164622619D01*
X39586904Y-164765476D01*
X39539285Y-164955952D01*
X39539285Y-165336904D01*
X39586904Y-165432142D01*
X39634523Y-165479761D01*
X39729761Y-165527380D01*
X39920238Y-165527380D01*
X40015476Y-165479761D01*
X40063095Y-165432142D01*
X40110714Y-165336904D01*
X40110714Y-165098809D01*
X40063095Y-165003571D01*
X40015476Y-164955952D01*
X39920238Y-164908333D01*
X39729761Y-164908333D01*
X39634523Y-164955952D01*
X39586904Y-165003571D01*
X39539285Y-165098809D01*
X31307142Y-157691666D02*
X31354761Y-157739285D01*
X31402380Y-157882142D01*
X31402380Y-157977380D01*
X31354761Y-158120238D01*
X31259523Y-158215476D01*
X31164285Y-158263095D01*
X30973809Y-158310714D01*
X30830952Y-158310714D01*
X30640476Y-158263095D01*
X30545238Y-158215476D01*
X30450000Y-158120238D01*
X30402380Y-157977380D01*
X30402380Y-157882142D01*
X30450000Y-157739285D01*
X30497619Y-157691666D01*
X30402380Y-156786904D02*
X30402380Y-157263095D01*
X30878571Y-157310714D01*
X30830952Y-157263095D01*
X30783333Y-157167857D01*
X30783333Y-156929761D01*
X30830952Y-156834523D01*
X30878571Y-156786904D01*
X30973809Y-156739285D01*
X31211904Y-156739285D01*
X31307142Y-156786904D01*
X31354761Y-156834523D01*
X31402380Y-156929761D01*
X31402380Y-157167857D01*
X31354761Y-157263095D01*
X31307142Y-157310714D01*
X29043333Y-164027142D02*
X28995714Y-164074761D01*
X28852857Y-164122380D01*
X28757619Y-164122380D01*
X28614761Y-164074761D01*
X28519523Y-163979523D01*
X28471904Y-163884285D01*
X28424285Y-163693809D01*
X28424285Y-163550952D01*
X28471904Y-163360476D01*
X28519523Y-163265238D01*
X28614761Y-163170000D01*
X28757619Y-163122380D01*
X28852857Y-163122380D01*
X28995714Y-163170000D01*
X29043333Y-163217619D01*
X29900476Y-163455714D02*
X29900476Y-164122380D01*
X29662380Y-163074761D02*
X29424285Y-163789047D01*
X30043333Y-163789047D01*
X37257142Y-168941666D02*
X37304761Y-168989285D01*
X37352380Y-169132142D01*
X37352380Y-169227380D01*
X37304761Y-169370238D01*
X37209523Y-169465476D01*
X37114285Y-169513095D01*
X36923809Y-169560714D01*
X36780952Y-169560714D01*
X36590476Y-169513095D01*
X36495238Y-169465476D01*
X36400000Y-169370238D01*
X36352380Y-169227380D01*
X36352380Y-169132142D01*
X36400000Y-168989285D01*
X36447619Y-168941666D01*
X37352380Y-167989285D02*
X37352380Y-168560714D01*
X37352380Y-168275000D02*
X36352380Y-168275000D01*
X36495238Y-168370238D01*
X36590476Y-168465476D01*
X36638095Y-168560714D01*
M02*
